solid OpenSCAD_Model
  facet normal 0 0 1
    outer loop
      vertex 0 8.98026 35.56
      vertex -25.3774 -24.1201 35.56
      vertex -24.1201 -25.3774 35.56
    endloop
  endfacet
  facet normal 0 0 1
    outer loop
      vertex -39.5196 -30.5393 35.56
      vertex -25.3774 -24.1201 35.56
      vertex 0 8.98026 35.56
    endloop
  endfacet
  facet normal 0 0 1
    outer loop
      vertex -25.3774 -24.1201 35.56
      vertex -37.1572 -33.4565 35.56
      vertex -35.9355 -34.6783 35.56
    endloop
  endfacet
  facet normal 0 0 1
    outer loop
      vertex -25.3774 -24.1201 35.56
      vertex -39.5196 -30.5393 35.56
      vertex -37.1572 -33.4565 35.56
    endloop
  endfacet
  facet normal 0 0 1
    outer loop
      vertex 25.4 25.4 35.56
      vertex 8.98026 0 35.56
      vertex 25.4 0 35.56
    endloop
  endfacet
  facet normal 0 0 1
    outer loop
      vertex 0 8.98026 35.56
      vertex 25.4 25.4 35.56
      vertex 0 25.4 35.56
    endloop
  endfacet
  facet normal 0 0 1
    outer loop
      vertex 25.4 25.4 35.56
      vertex 0 8.98026 35.56
      vertex 8.98026 0 35.56
    endloop
  endfacet
  facet normal 0 0 1
    outer loop
      vertex -24.1201 -25.3774 35.56
      vertex 8.98026 0 35.56
      vertex 0 8.98026 35.56
    endloop
  endfacet
  facet normal -0 0 1
    outer loop
      vertex -24.1201 -25.3774 35.56
      vertex -30.5393 -39.5196 35.56
      vertex 8.98026 0 35.56
    endloop
  endfacet
  facet normal 0 0 1
    outer loop
      vertex -24.1201 -25.3774 35.56
      vertex -33.4565 -37.1572 35.56
      vertex -30.5393 -39.5196 35.56
    endloop
  endfacet
  facet normal 0 -0 1
    outer loop
      vertex -33.4565 -37.1572 35.56
      vertex -24.1201 -25.3774 35.56
      vertex -34.6783 -35.9355 35.56
    endloop
  endfacet
  facet normal -0.707133 0.707081 0
    outer loop
      vertex -37.337 -28.3568 8.001
      vertex -35.99 -27.0097 27.559
      vertex -35.99 -27.0097 8.001
    endloop
  endfacet
  facet normal -0.707133 0.707081 0
    outer loop
      vertex -35.99 -27.0097 27.559
      vertex -37.337 -28.3568 8.001
      vertex -37.337 -28.3568 27.559
    endloop
  endfacet
  facet normal -0.707123 0.707091 0
    outer loop
      vertex 0 8.98026 2.67029e-07
      vertex -0.0902559 8.89 12.78
      vertex 0 8.98026 12.7895
    endloop
  endfacet
  facet normal -0.707109 0.707105 1.98654e-07
    outer loop
      vertex 0 8.98026 2.67029e-07
      vertex -1.12981 7.85044 12.8893
      vertex -0.0902559 8.89 12.78
    endloop
  endfacet
  facet normal -0.707103 0.707111 1.20644e-06
    outer loop
      vertex 0 8.98026 2.67029e-07
      vertex -2.12394 6.85632 13.2123
      vertex -1.12981 7.85044 12.8893
    endloop
  endfacet
  facet normal -0.707111 0.707102 -1.38415e-06
    outer loop
      vertex 0 8.98026 2.67029e-07
      vertex -3.02918 5.95107 13.7349
      vertex -2.12394 6.85632 13.2123
    endloop
  endfacet
  facet normal -0.707101 0.707113 3.14743e-06
    outer loop
      vertex 0 8.98026 2.67029e-07
      vertex -3.80598 5.17428 14.4343
      vertex -3.02918 5.95107 13.7349
    endloop
  endfacet
  facet normal -0.707106 0.707107 2.11351e-07
    outer loop
      vertex -35.99 -27.0097 2.667
      vertex -3.80598 5.17428 14.4343
      vertex 0 8.98026 2.67029e-07
    endloop
  endfacet
  facet normal -0.707108 0.707106 7.11083e-06
    outer loop
      vertex -3.80598 5.17428 14.4343
      vertex -35.99 -27.0097 2.667
      vertex -4.42038 4.55987 15.28
    endloop
  endfacet
  facet normal -0.707106 0.707107 1.82759e-07
    outer loop
      vertex -4.84554 4.13472 16.2349
      vertex -35.99 -27.0097 8.001
      vertex -5.06287 3.91739 17.2574
    endloop
  endfacet
  facet normal -0.707105 0.707108 -6.26342e-06
    outer loop
      vertex -4.42038 4.55987 15.28
      vertex -35.99 -27.0097 8.001
      vertex -4.84554 4.13472 16.2349
    endloop
  endfacet
  facet normal -0.707106 0.707107 0
    outer loop
      vertex -35.99 -27.0097 8.001
      vertex -4.42038 4.55987 15.28
      vertex -35.99 -27.0097 2.667
    endloop
  endfacet
  facet normal -0.707106 0.707107 -9.47186e-07
    outer loop
      vertex -39.5196 -30.5393 2.67029e-07
      vertex -35.99 -27.0097 2.667
      vertex 0 8.98026 2.67029e-07
    endloop
  endfacet
  facet normal -0.707091 0.707123 0
    outer loop
      vertex -39.5196 -30.5393 2.67029e-07
      vertex -37.337 -28.3568 8.001
      vertex -37.337 -28.3568 2.667
    endloop
  endfacet
  facet normal -0.707091 0.707123 0
    outer loop
      vertex -37.337 -28.3568 8.001
      vertex -39.5196 -30.5393 2.67029e-07
      vertex -37.337 -28.3568 27.559
    endloop
  endfacet
  facet normal -0.707091 0.707123 0
    outer loop
      vertex -39.5196 -30.5393 35.56
      vertex -37.337 -28.3568 27.559
      vertex -39.5196 -30.5393 2.67029e-07
    endloop
  endfacet
  facet normal -0.707133 0.707081 6.9471e-05
    outer loop
      vertex -35.99 -27.0097 2.667
      vertex -39.5196 -30.5393 2.67029e-07
      vertex -37.337 -28.3568 2.667
    endloop
  endfacet
  facet normal -0.707123 0.707091 0
    outer loop
      vertex -0.0902559 8.89 22.78
      vertex 0 8.98026 35.56
      vertex 0 8.98026 22.7705
    endloop
  endfacet
  facet normal -0.707109 0.707105 -1.98654e-07
    outer loop
      vertex -1.12981 7.85044 22.6707
      vertex 0 8.98026 35.56
      vertex -0.0902559 8.89 22.78
    endloop
  endfacet
  facet normal -0.707103 0.707111 -1.20644e-06
    outer loop
      vertex -2.12394 6.85632 22.3477
      vertex 0 8.98026 35.56
      vertex -1.12981 7.85044 22.6707
    endloop
  endfacet
  facet normal -0.707111 0.707102 1.38415e-06
    outer loop
      vertex -3.02918 5.95107 21.8251
      vertex 0 8.98026 35.56
      vertex -2.12394 6.85632 22.3477
    endloop
  endfacet
  facet normal -0.707101 0.707113 -3.14743e-06
    outer loop
      vertex -3.80598 5.17428 21.1257
      vertex 0 8.98026 35.56
      vertex -3.02918 5.95107 21.8251
    endloop
  endfacet
  facet normal -0.707108 0.707106 -7.11083e-06
    outer loop
      vertex -35.99 -27.0097 32.893
      vertex -3.80598 5.17428 21.1257
      vertex -4.42038 4.55987 20.28
    endloop
  endfacet
  facet normal -0.707105 0.707108 6.26342e-06
    outer loop
      vertex -35.99 -27.0097 27.559
      vertex -4.42038 4.55987 20.28
      vertex -4.84554 4.13472 19.3251
    endloop
  endfacet
  facet normal -0.707106 0.707107 0
    outer loop
      vertex -5.06287 3.91739 17.2574
      vertex -35.99 -27.0097 8.001
      vertex -5.06287 3.91739 18.3026
    endloop
  endfacet
  facet normal -0.707106 0.707107 0
    outer loop
      vertex -35.99 -27.0097 27.559
      vertex -5.06287 3.91739 18.3026
      vertex -35.99 -27.0097 8.001
    endloop
  endfacet
  facet normal -0.707106 0.707107 -1.82759e-07
    outer loop
      vertex -5.06287 3.91739 18.3026
      vertex -35.99 -27.0097 27.559
      vertex -4.84554 4.13472 19.3251
    endloop
  endfacet
  facet normal -0.707106 0.707107 0
    outer loop
      vertex -4.42038 4.55987 20.28
      vertex -35.99 -27.0097 27.559
      vertex -35.99 -27.0097 32.893
    endloop
  endfacet
  facet normal -0.707106 0.707107 -2.11351e-07
    outer loop
      vertex -3.80598 5.17428 21.1257
      vertex -35.99 -27.0097 32.893
      vertex 0 8.98026 35.56
    endloop
  endfacet
  facet normal -0.707133 0.707081 -6.9471e-05
    outer loop
      vertex -39.5196 -30.5393 35.56
      vertex -35.99 -27.0097 32.893
      vertex -37.337 -28.3568 32.893
    endloop
  endfacet
  facet normal -0.707106 0.707107 9.47186e-07
    outer loop
      vertex -35.99 -27.0097 32.893
      vertex -39.5196 -30.5393 35.56
      vertex 0 8.98026 35.56
    endloop
  endfacet
  facet normal -0.707091 0.707123 0
    outer loop
      vertex -37.337 -28.3568 27.559
      vertex -39.5196 -30.5393 35.56
      vertex -37.337 -28.3568 32.893
    endloop
  endfacet
  facet normal -0 0 -1
    outer loop
      vertex 8.98026 0 2.67029e-07
      vertex -24.1201 -25.3774 2.67029e-07
      vertex 0 8.98026 2.67029e-07
    endloop
  endfacet
  facet normal 0 0 -1
    outer loop
      vertex -30.5393 -39.5196 2.67029e-07
      vertex -24.1201 -25.3774 2.67029e-07
      vertex 8.98026 0 2.67029e-07
    endloop
  endfacet
  facet normal 0 0 -1
    outer loop
      vertex -33.4565 -37.1572 2.67029e-07
      vertex -24.1201 -25.3774 2.67029e-07
      vertex -30.5393 -39.5196 2.67029e-07
    endloop
  endfacet
  facet normal 0 0 -1
    outer loop
      vertex -24.1201 -25.3774 2.67029e-07
      vertex -33.4565 -37.1572 2.67029e-07
      vertex -34.6783 -35.9355 2.67029e-07
    endloop
  endfacet
  facet normal 0 0 -1
    outer loop
      vertex 8.98026 0 2.67029e-07
      vertex 25.4 25.4 2.67029e-07
      vertex 25.4 0 2.67029e-07
    endloop
  endfacet
  facet normal 0 0 -1
    outer loop
      vertex 0 8.98026 2.67029e-07
      vertex 25.4 25.4 2.67029e-07
      vertex 8.98026 0 2.67029e-07
    endloop
  endfacet
  facet normal -0 0 -1
    outer loop
      vertex 25.4 25.4 2.67029e-07
      vertex 0 8.98026 2.67029e-07
      vertex 0 25.4 2.67029e-07
    endloop
  endfacet
  facet normal 0 0 -1
    outer loop
      vertex -25.3774 -24.1201 2.67029e-07
      vertex 0 8.98026 2.67029e-07
      vertex -24.1201 -25.3774 2.67029e-07
    endloop
  endfacet
  facet normal 0 0 -1
    outer loop
      vertex -37.1572 -33.4565 2.67029e-07
      vertex -25.3774 -24.1201 2.67029e-07
      vertex -35.9355 -34.6783 2.67029e-07
    endloop
  endfacet
  facet normal 0 0 -1
    outer loop
      vertex -39.5196 -30.5393 2.67029e-07
      vertex -25.3774 -24.1201 2.67029e-07
      vertex -37.1572 -33.4565 2.67029e-07
    endloop
  endfacet
  facet normal -0 0 -1
    outer loop
      vertex -25.3774 -24.1201 2.67029e-07
      vertex -39.5196 -30.5393 2.67029e-07
      vertex 0 8.98026 2.67029e-07
    endloop
  endfacet
  facet normal 0.707081 -0.707133 0
    outer loop
      vertex -28.3568 -37.337 27.559
      vertex -27.0097 -35.99 8.001
      vertex -27.0097 -35.99 27.559
    endloop
  endfacet
  facet normal 0.707081 -0.707133 0
    outer loop
      vertex -27.0097 -35.99 8.001
      vertex -28.3568 -37.337 27.559
      vertex -28.3568 -37.337 8.001
    endloop
  endfacet
  facet normal 0.707107 -0.707106 0
    outer loop
      vertex -27.0097 -35.99 27.559
      vertex 8.98026 0 35.56
      vertex -27.0097 -35.99 32.893
    endloop
  endfacet
  facet normal 0.707107 -0.707106 9.47186e-07
    outer loop
      vertex -30.5393 -39.5196 35.56
      vertex -27.0097 -35.99 32.893
      vertex 8.98026 0 35.56
    endloop
  endfacet
  facet normal 0.707123 -0.707091 0
    outer loop
      vertex -30.5393 -39.5196 35.56
      vertex -28.3568 -37.337 27.559
      vertex -28.3568 -37.337 32.893
    endloop
  endfacet
  facet normal 0.707123 -0.707091 0
    outer loop
      vertex -28.3568 -37.337 27.559
      vertex -30.5393 -39.5196 35.56
      vertex -28.3568 -37.337 8.001
    endloop
  endfacet
  facet normal 0.707123 -0.707091 0
    outer loop
      vertex -30.5393 -39.5196 2.67029e-07
      vertex -28.3568 -37.337 8.001
      vertex -30.5393 -39.5196 35.56
    endloop
  endfacet
  facet normal 0.707081 -0.707133 -6.9471e-05
    outer loop
      vertex -27.0097 -35.99 32.893
      vertex -30.5393 -39.5196 35.56
      vertex -28.3568 -37.337 32.893
    endloop
  endfacet
  facet normal 0.707107 -0.707106 0
    outer loop
      vertex 8.98026 0 35.56
      vertex -27.0097 -35.99 27.559
      vertex 8.98026 0 2.67029e-07
    endloop
  endfacet
  facet normal 0.707107 -0.707106 0
    outer loop
      vertex -27.0097 -35.99 8.001
      vertex 8.98026 0 2.67029e-07
      vertex -27.0097 -35.99 27.559
    endloop
  endfacet
  facet normal 0.707107 -0.707106 0
    outer loop
      vertex -27.0097 -35.99 2.667
      vertex 8.98026 0 2.67029e-07
      vertex -27.0097 -35.99 8.001
    endloop
  endfacet
  facet normal 0.707081 -0.707133 6.9471e-05
    outer loop
      vertex -30.5393 -39.5196 2.67029e-07
      vertex -27.0097 -35.99 2.667
      vertex -28.3568 -37.337 2.667
    endloop
  endfacet
  facet normal 0.707107 -0.707106 -9.47186e-07
    outer loop
      vertex -27.0097 -35.99 2.667
      vertex -30.5393 -39.5196 2.67029e-07
      vertex 8.98026 0 2.67029e-07
    endloop
  endfacet
  facet normal 0.707123 -0.707091 0
    outer loop
      vertex -28.3568 -37.337 8.001
      vertex -30.5393 -39.5196 2.67029e-07
      vertex -28.3568 -37.337 2.667
    endloop
  endfacet
  facet normal -0.707107 -0.707107 0
    outer loop
      vertex -24.1201 -25.3774 2.67029e-07
      vertex -25.3774 -24.1201 35.56
      vertex -25.3774 -24.1201 2.67029e-07
    endloop
  endfacet
  facet normal -0.707107 -0.707107 0
    outer loop
      vertex -25.3774 -24.1201 35.56
      vertex -24.1201 -25.3774 2.67029e-07
      vertex -24.1201 -25.3774 35.56
    endloop
  endfacet
  facet normal 0.707133 -0.707081 0
    outer loop
      vertex -33.4755 -32.2183 27.559
      vertex -32.1285 -30.8712 8.001
      vertex -32.1285 -30.8712 27.559
    endloop
  endfacet
  facet normal 0.707133 -0.707081 0
    outer loop
      vertex -32.1285 -30.8712 8.001
      vertex -33.4755 -32.2183 27.559
      vertex -33.4755 -32.2183 8.001
    endloop
  endfacet
  facet normal 0.707107 -0.707107 0
    outer loop
      vertex -32.1285 -30.8712 27.559
      vertex -25.3774 -24.1201 35.56
      vertex -32.1285 -30.8712 32.893
    endloop
  endfacet
  facet normal 0.70711 -0.707103 -1.69531e-05
    outer loop
      vertex -35.9355 -34.6783 35.56
      vertex -32.1285 -30.8712 32.893
      vertex -25.3774 -24.1201 35.56
    endloop
  endfacet
  facet normal 0.707107 -0.707107 0
    outer loop
      vertex -35.9355 -34.6783 35.56
      vertex -33.4755 -32.2183 27.559
      vertex -33.4755 -32.2183 32.893
    endloop
  endfacet
  facet normal 0.707107 -0.707107 0
    outer loop
      vertex -33.4755 -32.2183 27.559
      vertex -35.9355 -34.6783 35.56
      vertex -33.4755 -32.2183 8.001
    endloop
  endfacet
  facet normal 0.707107 -0.707107 0
    outer loop
      vertex -35.9355 -34.6783 2.67029e-07
      vertex -33.4755 -32.2183 8.001
      vertex -35.9355 -34.6783 35.56
    endloop
  endfacet
  facet normal 0.707133 -0.707081 4.84187e-05
    outer loop
      vertex -32.1285 -30.8712 32.893
      vertex -35.9355 -34.6783 35.56
      vertex -33.4755 -32.2183 32.893
    endloop
  endfacet
  facet normal 0.707107 -0.707107 0
    outer loop
      vertex -25.3774 -24.1201 35.56
      vertex -32.1285 -30.8712 27.559
      vertex -25.3774 -24.1201 2.67029e-07
    endloop
  endfacet
  facet normal 0.707107 -0.707107 0
    outer loop
      vertex -32.1285 -30.8712 8.001
      vertex -25.3774 -24.1201 2.67029e-07
      vertex -32.1285 -30.8712 27.559
    endloop
  endfacet
  facet normal 0.707107 -0.707107 0
    outer loop
      vertex -32.1285 -30.8712 2.667
      vertex -25.3774 -24.1201 2.67029e-07
      vertex -32.1285 -30.8712 8.001
    endloop
  endfacet
  facet normal 0.707133 -0.707081 -4.84187e-05
    outer loop
      vertex -35.9355 -34.6783 2.67029e-07
      vertex -32.1285 -30.8712 2.667
      vertex -33.4755 -32.2183 2.667
    endloop
  endfacet
  facet normal 0.70711 -0.707103 1.69531e-05
    outer loop
      vertex -32.1285 -30.8712 2.667
      vertex -35.9355 -34.6783 2.67029e-07
      vertex -25.3774 -24.1201 2.67029e-07
    endloop
  endfacet
  facet normal 0.707107 -0.707107 0
    outer loop
      vertex -33.4755 -32.2183 8.001
      vertex -35.9355 -34.6783 2.67029e-07
      vertex -33.4755 -32.2183 2.667
    endloop
  endfacet
  facet normal -0.707081 0.707133 0
    outer loop
      vertex -32.2183 -33.4755 8.001
      vertex -30.8712 -32.1285 27.559
      vertex -30.8712 -32.1285 8.001
    endloop
  endfacet
  facet normal -0.707081 0.707133 0
    outer loop
      vertex -30.8712 -32.1285 27.559
      vertex -32.2183 -33.4755 8.001
      vertex -32.2183 -33.4755 27.559
    endloop
  endfacet
  facet normal -0.707107 0.707107 0
    outer loop
      vertex -30.8712 -32.1285 8.001
      vertex -24.1201 -25.3774 2.67029e-07
      vertex -30.8712 -32.1285 2.667
    endloop
  endfacet
  facet normal -0.707103 0.70711 1.69531e-05
    outer loop
      vertex -34.6783 -35.9355 2.67029e-07
      vertex -30.8712 -32.1285 2.667
      vertex -24.1201 -25.3774 2.67029e-07
    endloop
  endfacet
  facet normal -0.707107 0.707107 0
    outer loop
      vertex -34.6783 -35.9355 2.67029e-07
      vertex -32.2183 -33.4755 8.001
      vertex -32.2183 -33.4755 2.667
    endloop
  endfacet
  facet normal -0.707107 0.707107 0
    outer loop
      vertex -32.2183 -33.4755 8.001
      vertex -34.6783 -35.9355 2.67029e-07
      vertex -32.2183 -33.4755 27.559
    endloop
  endfacet
  facet normal -0.707107 0.707107 0
    outer loop
      vertex -34.6783 -35.9355 35.56
      vertex -32.2183 -33.4755 27.559
      vertex -34.6783 -35.9355 2.67029e-07
    endloop
  endfacet
  facet normal -0.707081 0.707133 -4.84187e-05
    outer loop
      vertex -30.8712 -32.1285 2.667
      vertex -34.6783 -35.9355 2.67029e-07
      vertex -32.2183 -33.4755 2.667
    endloop
  endfacet
  facet normal -0.707107 0.707107 0
    outer loop
      vertex -24.1201 -25.3774 2.67029e-07
      vertex -30.8712 -32.1285 8.001
      vertex -24.1201 -25.3774 35.56
    endloop
  endfacet
  facet normal -0.707107 0.707107 0
    outer loop
      vertex -30.8712 -32.1285 27.559
      vertex -24.1201 -25.3774 35.56
      vertex -30.8712 -32.1285 8.001
    endloop
  endfacet
  facet normal -0.707107 0.707107 0
    outer loop
      vertex -30.8712 -32.1285 32.893
      vertex -24.1201 -25.3774 35.56
      vertex -30.8712 -32.1285 27.559
    endloop
  endfacet
  facet normal -0.707081 0.707133 4.84187e-05
    outer loop
      vertex -34.6783 -35.9355 35.56
      vertex -30.8712 -32.1285 32.893
      vertex -32.2183 -33.4755 32.893
    endloop
  endfacet
  facet normal -0.707103 0.70711 -1.69531e-05
    outer loop
      vertex -30.8712 -32.1285 32.893
      vertex -34.6783 -35.9355 35.56
      vertex -24.1201 -25.3774 35.56
    endloop
  endfacet
  facet normal -0.707107 0.707107 0
    outer loop
      vertex -32.2183 -33.4755 27.559
      vertex -34.6783 -35.9355 35.56
      vertex -32.2183 -33.4755 32.893
    endloop
  endfacet
  facet normal 0.707107 0.707107 -0
    outer loop
      vertex -33.4755 -32.2183 27.559
      vertex -37.337 -28.3568 32.893
      vertex -33.4755 -32.2183 32.893
    endloop
  endfacet
  facet normal 0.707107 0.707107 0
    outer loop
      vertex -37.337 -28.3568 32.893
      vertex -33.4755 -32.2183 27.559
      vertex -37.337 -28.3568 27.559
    endloop
  endfacet
  facet normal 0.707107 0.707107 0
    outer loop
      vertex -28.3568 -37.337 32.893
      vertex -32.2183 -33.4755 27.559
      vertex -32.2183 -33.4755 32.893
    endloop
  endfacet
  facet normal 0.707107 0.707107 0
    outer loop
      vertex -32.2183 -33.4755 27.559
      vertex -28.3568 -37.337 32.893
      vertex -28.3568 -37.337 27.559
    endloop
  endfacet
  facet normal 0 0 -1
    outer loop
      vertex -33.4755 -32.2183 32.893
      vertex -35.99 -27.0097 32.893
      vertex -32.1285 -30.8712 32.893
    endloop
  endfacet
  facet normal 0 -0 -1
    outer loop
      vertex -35.99 -27.0097 32.893
      vertex -33.4755 -32.2183 32.893
      vertex -37.337 -28.3568 32.893
    endloop
  endfacet
  facet normal 0 0 -1
    outer loop
      vertex -28.3568 -37.337 32.893
      vertex -30.8712 -32.1285 32.893
      vertex -27.0097 -35.99 32.893
    endloop
  endfacet
  facet normal 0 -0 -1
    outer loop
      vertex -30.8712 -32.1285 32.893
      vertex -28.3568 -37.337 32.893
      vertex -32.2183 -33.4755 32.893
    endloop
  endfacet
  facet normal -0.707107 -0.707107 0
    outer loop
      vertex -35.99 -27.0097 27.559
      vertex -32.1285 -30.8712 32.893
      vertex -35.99 -27.0097 32.893
    endloop
  endfacet
  facet normal -0.707107 -0.707107 -0
    outer loop
      vertex -32.1285 -30.8712 32.893
      vertex -35.99 -27.0097 27.559
      vertex -32.1285 -30.8712 27.559
    endloop
  endfacet
  facet normal -0.707107 -0.707107 0
    outer loop
      vertex -27.0097 -35.99 27.559
      vertex -30.8712 -32.1285 32.893
      vertex -30.8712 -32.1285 27.559
    endloop
  endfacet
  facet normal -0.707107 -0.707107 0
    outer loop
      vertex -30.8712 -32.1285 32.893
      vertex -27.0097 -35.99 27.559
      vertex -27.0097 -35.99 32.893
    endloop
  endfacet
  facet normal 0 0 1
    outer loop
      vertex -35.99 -27.0097 27.559
      vertex -33.4755 -32.2183 27.559
      vertex -32.1285 -30.8712 27.559
    endloop
  endfacet
  facet normal 0 0 1
    outer loop
      vertex -33.4755 -32.2183 27.559
      vertex -35.99 -27.0097 27.559
      vertex -37.337 -28.3568 27.559
    endloop
  endfacet
  facet normal 0 0 1
    outer loop
      vertex -30.8712 -32.1285 27.559
      vertex -28.3568 -37.337 27.559
      vertex -27.0097 -35.99 27.559
    endloop
  endfacet
  facet normal 0 0 1
    outer loop
      vertex -28.3568 -37.337 27.559
      vertex -30.8712 -32.1285 27.559
      vertex -32.2183 -33.4755 27.559
    endloop
  endfacet
  facet normal 0.707107 0.707107 -0
    outer loop
      vertex -33.4755 -32.2183 2.667
      vertex -37.337 -28.3568 8.001
      vertex -33.4755 -32.2183 8.001
    endloop
  endfacet
  facet normal 0.707107 0.707107 0
    outer loop
      vertex -37.337 -28.3568 8.001
      vertex -33.4755 -32.2183 2.667
      vertex -37.337 -28.3568 2.667
    endloop
  endfacet
  facet normal 0.707107 0.707107 0
    outer loop
      vertex -28.3568 -37.337 8.001
      vertex -32.2183 -33.4755 2.667
      vertex -32.2183 -33.4755 8.001
    endloop
  endfacet
  facet normal 0.707107 0.707107 0
    outer loop
      vertex -32.2183 -33.4755 2.667
      vertex -28.3568 -37.337 8.001
      vertex -28.3568 -37.337 2.667
    endloop
  endfacet
  facet normal 0 0 -1
    outer loop
      vertex -33.4755 -32.2183 8.001
      vertex -35.99 -27.0097 8.001
      vertex -32.1285 -30.8712 8.001
    endloop
  endfacet
  facet normal 0 -0 -1
    outer loop
      vertex -35.99 -27.0097 8.001
      vertex -33.4755 -32.2183 8.001
      vertex -37.337 -28.3568 8.001
    endloop
  endfacet
  facet normal 0 0 -1
    outer loop
      vertex -28.3568 -37.337 8.001
      vertex -30.8712 -32.1285 8.001
      vertex -27.0097 -35.99 8.001
    endloop
  endfacet
  facet normal 0 -0 -1
    outer loop
      vertex -30.8712 -32.1285 8.001
      vertex -28.3568 -37.337 8.001
      vertex -32.2183 -33.4755 8.001
    endloop
  endfacet
  facet normal -0.707107 -0.707107 0
    outer loop
      vertex -35.99 -27.0097 2.667
      vertex -32.1285 -30.8712 8.001
      vertex -35.99 -27.0097 8.001
    endloop
  endfacet
  facet normal -0.707107 -0.707107 -0
    outer loop
      vertex -32.1285 -30.8712 8.001
      vertex -35.99 -27.0097 2.667
      vertex -32.1285 -30.8712 2.667
    endloop
  endfacet
  facet normal -0.707107 -0.707107 0
    outer loop
      vertex -27.0097 -35.99 2.667
      vertex -30.8712 -32.1285 8.001
      vertex -30.8712 -32.1285 2.667
    endloop
  endfacet
  facet normal -0.707107 -0.707107 0
    outer loop
      vertex -30.8712 -32.1285 8.001
      vertex -27.0097 -35.99 2.667
      vertex -27.0097 -35.99 8.001
    endloop
  endfacet
  facet normal 0 0 1
    outer loop
      vertex -35.99 -27.0097 2.667
      vertex -33.4755 -32.2183 2.667
      vertex -32.1285 -30.8712 2.667
    endloop
  endfacet
  facet normal 0 0 1
    outer loop
      vertex -33.4755 -32.2183 2.667
      vertex -35.99 -27.0097 2.667
      vertex -37.337 -28.3568 2.667
    endloop
  endfacet
  facet normal 0 0 1
    outer loop
      vertex -30.8712 -32.1285 2.667
      vertex -28.3568 -37.337 2.667
      vertex -27.0097 -35.99 2.667
    endloop
  endfacet
  facet normal 0 0 1
    outer loop
      vertex -28.3568 -37.337 2.667
      vertex -30.8712 -32.1285 2.667
      vertex -32.2183 -33.4755 2.667
    endloop
  endfacet
  facet normal -0.777133 -0.629336 0
    outer loop
      vertex -37.1572 -33.4565 2.67029e-07
      vertex -39.5196 -30.5393 35.56
      vertex -39.5196 -30.5393 2.67029e-07
    endloop
  endfacet
  facet normal -0.777133 -0.629336 0
    outer loop
      vertex -39.5196 -30.5393 35.56
      vertex -37.1572 -33.4565 2.67029e-07
      vertex -37.1572 -33.4565 35.56
    endloop
  endfacet
  facet normal -0.707136 -0.707078 0
    outer loop
      vertex -35.9355 -34.6783 2.67029e-07
      vertex -37.1572 -33.4565 35.56
      vertex -37.1572 -33.4565 2.67029e-07
    endloop
  endfacet
  facet normal -0.707136 -0.707078 0
    outer loop
      vertex -37.1572 -33.4565 35.56
      vertex -35.9355 -34.6783 2.67029e-07
      vertex -35.9355 -34.6783 35.56
    endloop
  endfacet
  facet normal -0.707078 -0.707136 0
    outer loop
      vertex -34.6783 -35.9355 2.67029e-07
      vertex -33.4565 -37.1572 35.56
      vertex -34.6783 -35.9355 35.56
    endloop
  endfacet
  facet normal -0.707078 -0.707136 -0
    outer loop
      vertex -33.4565 -37.1572 35.56
      vertex -34.6783 -35.9355 2.67029e-07
      vertex -33.4565 -37.1572 2.67029e-07
    endloop
  endfacet
  facet normal -0.629336 -0.777133 0
    outer loop
      vertex -33.4565 -37.1572 2.67029e-07
      vertex -30.5393 -39.5196 35.56
      vertex -33.4565 -37.1572 35.56
    endloop
  endfacet
  facet normal -0.629336 -0.777133 -0
    outer loop
      vertex -30.5393 -39.5196 35.56
      vertex -33.4565 -37.1572 2.67029e-07
      vertex -30.5393 -39.5196 2.67029e-07
    endloop
  endfacet
  facet normal -1 0 0
    outer loop
      vertex 0 25.4 2.67029e-07
      vertex 0 13.8626 17.2574
      vertex 0 25.4 35.56
    endloop
  endfacet
  facet normal -1 0 0
    outer loop
      vertex 0 25.4 2.67029e-07
      vertex 0 13.6453 16.2349
      vertex 0 13.8626 17.2574
    endloop
  endfacet
  facet normal -1 0 0
    outer loop
      vertex 0 25.4 2.67029e-07
      vertex 0 13.2201 15.28
      vertex 0 13.6453 16.2349
    endloop
  endfacet
  facet normal -1 0 0
    outer loop
      vertex 0 25.4 2.67029e-07
      vertex 0 12.6057 14.4343
      vertex 0 13.2201 15.28
    endloop
  endfacet
  facet normal -1 0 0
    outer loop
      vertex 0 25.4 2.67029e-07
      vertex 0 11.8289 13.7349
      vertex 0 12.6057 14.4343
    endloop
  endfacet
  facet normal -1 0 0
    outer loop
      vertex 0 8.98026 2.67029e-07
      vertex 0 11.8289 13.7349
      vertex 0 25.4 2.67029e-07
    endloop
  endfacet
  facet normal -1 0 0
    outer loop
      vertex 0 11.8289 13.7349
      vertex 0 8.98026 2.67029e-07
      vertex 0 10.9237 13.2123
    endloop
  endfacet
  facet normal -1 0 0
    outer loop
      vertex 0 10.9237 13.2123
      vertex 0 8.98026 2.67029e-07
      vertex 0 9.92956 12.8893
    endloop
  endfacet
  facet normal -1 0 0
    outer loop
      vertex 0 9.92956 12.8893
      vertex 0 8.98026 2.67029e-07
      vertex 0 8.98026 12.7895
    endloop
  endfacet
  facet normal -1 0 0
    outer loop
      vertex 0 13.8626 18.3026
      vertex 0 25.4 35.56
      vertex 0 13.8626 17.2574
    endloop
  endfacet
  facet normal -1 0 0
    outer loop
      vertex 0 13.6453 19.3251
      vertex 0 25.4 35.56
      vertex 0 13.8626 18.3026
    endloop
  endfacet
  facet normal -1 0 0
    outer loop
      vertex 0 13.2201 20.28
      vertex 0 25.4 35.56
      vertex 0 13.6453 19.3251
    endloop
  endfacet
  facet normal -1 0 0
    outer loop
      vertex 0 12.6057 21.1257
      vertex 0 25.4 35.56
      vertex 0 13.2201 20.28
    endloop
  endfacet
  facet normal -1 0 0
    outer loop
      vertex 0 11.8289 21.8251
      vertex 0 25.4 35.56
      vertex 0 12.6057 21.1257
    endloop
  endfacet
  facet normal -1 0 0
    outer loop
      vertex 0 8.98026 35.56
      vertex 0 11.8289 21.8251
      vertex 0 10.9237 22.3477
    endloop
  endfacet
  facet normal -1 0 0
    outer loop
      vertex 0 8.98026 35.56
      vertex 0 10.9237 22.3477
      vertex 0 9.92956 22.6707
    endloop
  endfacet
  facet normal -1 0 0
    outer loop
      vertex 0 8.98026 35.56
      vertex 0 9.92956 22.6707
      vertex 0 8.98026 22.7705
    endloop
  endfacet
  facet normal -1 0 0
    outer loop
      vertex 0 11.8289 21.8251
      vertex 0 8.98026 35.56
      vertex 0 25.4 35.56
    endloop
  endfacet
  facet normal 1 -0 0
    outer loop
      vertex 25.4 0 35.56
      vertex 25.4 25.4 32.5639
      vertex 25.4 25.4 35.56
    endloop
  endfacet
  facet normal 1 0 0
    outer loop
      vertex 25.4 25.4 32.5639
      vertex 25.4 0 35.56
      vertex 25.4 0 32.5639
    endloop
  endfacet
  facet normal 1 -0 0
    outer loop
      vertex 25.4 0 2.99608
      vertex 25.4 25.4 2.67029e-07
      vertex 25.4 25.4 2.99608
    endloop
  endfacet
  facet normal 1 0 0
    outer loop
      vertex 25.4 25.4 2.67029e-07
      vertex 25.4 0 2.99608
      vertex 25.4 0 2.67029e-07
    endloop
  endfacet
  facet normal 0 -1 0
    outer loop
      vertex 19.5325 0 29.2428
      vertex 25.4 0 35.56
      vertex 8.98026 0 35.56
    endloop
  endfacet
  facet normal 0 -1 0
    outer loop
      vertex 25.4 0 35.56
      vertex 22.0352 0 30.1291
      vertex 25.1263 0 32.5639
    endloop
  endfacet
  facet normal 0 -1 0
    outer loop
      vertex 25.1263 0 32.5639
      vertex 22.0352 0 30.1291
      vertex 22.791 0 30.2286
    endloop
  endfacet
  facet normal 0 -1 0
    outer loop
      vertex 25.4 0 35.56
      vertex 19.5325 0 29.2428
      vertex 22.0352 0 30.1291
    endloop
  endfacet
  facet normal 0 -1 0
    outer loop
      vertex 8.98026 0 35.56
      vertex 17.2687 0 27.8556
      vertex 19.5325 0 29.2428
    endloop
  endfacet
  facet normal 0 -1 0
    outer loop
      vertex 8.98026 0 35.56
      vertex 15.3428 0 26.028
      vertex 17.2687 0 27.8556
    endloop
  endfacet
  facet normal 0 -1 0
    outer loop
      vertex 8.98026 0 35.56
      vertex 13.839 0 23.8399
      vertex 15.3428 0 26.028
    endloop
  endfacet
  facet normal 0 -1 0
    outer loop
      vertex 8.98026 0 35.56
      vertex 12.823 0 21.387
      vertex 13.839 0 23.8399
    endloop
  endfacet
  facet normal 0 -1 0
    outer loop
      vertex 8.98026 0 35.56
      vertex 12.3391 0 18.7764
      vertex 12.823 0 21.387
    endloop
  endfacet
  facet normal 0 -1 0
    outer loop
      vertex 8.98026 0 2.67029e-07
      vertex 12.3391 0 18.7764
      vertex 8.98026 0 35.56
    endloop
  endfacet
  facet normal 0 -1 0
    outer loop
      vertex 22.6856 0 5.29266
      vertex 25.1263 0 2.99608
      vertex 22.842 0 5.28035
    endloop
  endfacet
  facet normal 0 -1 0
    outer loop
      vertex 25.4 0 2.67029e-07
      vertex 22.6856 0 5.29266
      vertex 20.1399 0 6.04673
    endloop
  endfacet
  facet normal 0 -1 0
    outer loop
      vertex 8.98026 0 2.67029e-07
      vertex 20.1399 0 6.04673
      vertex 17.8066 0 7.3136
    endloop
  endfacet
  facet normal 0 -1 -0
    outer loop
      vertex 12.3391 0 18.7764
      vertex 8.98026 0 2.67029e-07
      vertex 12.4086 0 16.1223
    endloop
  endfacet
  facet normal 0 -1 0
    outer loop
      vertex 8.98026 0 2.67029e-07
      vertex 13.0285 0 13.5407
      vertex 12.4086 0 16.1223
    endloop
  endfacet
  facet normal 0 -1 0
    outer loop
      vertex 8.98026 0 2.67029e-07
      vertex 14.1715 0 11.1443
      vertex 13.0285 0 13.5407
    endloop
  endfacet
  facet normal 0 -1 0
    outer loop
      vertex 8.98026 0 2.67029e-07
      vertex 15.7877 0 9.0379
      vertex 14.1715 0 11.1443
    endloop
  endfacet
  facet normal 0 -1 0
    outer loop
      vertex 8.98026 0 2.67029e-07
      vertex 17.8066 0 7.3136
      vertex 15.7877 0 9.0379
    endloop
  endfacet
  facet normal 0 -1 -0
    outer loop
      vertex 20.1399 0 6.04673
      vertex 8.98026 0 2.67029e-07
      vertex 25.4 0 2.67029e-07
    endloop
  endfacet
  facet normal 0 -1 0
    outer loop
      vertex 22.6856 0 5.29266
      vertex 25.4 0 2.67029e-07
      vertex 25.1263 0 2.99608
    endloop
  endfacet
  facet normal 0 -1 0
    outer loop
      vertex 25.1263 0 2.99608
      vertex 25.4 0 2.67029e-07
      vertex 25.4 0 2.99608
    endloop
  endfacet
  facet normal 0 -1 -0
    outer loop
      vertex 25.4 0 35.56
      vertex 25.1263 0 32.5639
      vertex 25.4 0 32.5639
    endloop
  endfacet
  facet normal 0 1 0
    outer loop
      vertex 25.4 25.4 2.99608
      vertex 25.4 25.4 2.67029e-07
      vertex 25.1263 25.4 2.99608
    endloop
  endfacet
  facet normal 0 1 0
    outer loop
      vertex 25.1263 25.4 32.5639
      vertex 25.4 25.4 35.56
      vertex 25.4 25.4 32.5639
    endloop
  endfacet
  facet normal 0 1 0
    outer loop
      vertex 22.0352 25.4 30.1291
      vertex 25.4 25.4 35.56
      vertex 25.1263 25.4 32.5639
    endloop
  endfacet
  facet normal 0 1 0
    outer loop
      vertex 22.0352 25.4 30.1291
      vertex 25.1263 25.4 32.5639
      vertex 22.791 25.4 30.2286
    endloop
  endfacet
  facet normal 0 1 0
    outer loop
      vertex 25.4 25.4 35.56
      vertex 22.0352 25.4 30.1291
      vertex 19.5325 25.4 29.2428
    endloop
  endfacet
  facet normal 0 1 0
    outer loop
      vertex 25.4 25.4 35.56
      vertex 19.5325 25.4 29.2428
      vertex 0 25.4 35.56
    endloop
  endfacet
  facet normal 0 1 -0
    outer loop
      vertex 17.2687 25.4 27.8556
      vertex 0 25.4 35.56
      vertex 19.5325 25.4 29.2428
    endloop
  endfacet
  facet normal 0 1 -0
    outer loop
      vertex 15.3428 25.4 26.028
      vertex 0 25.4 35.56
      vertex 17.2687 25.4 27.8556
    endloop
  endfacet
  facet normal 0 1 -0
    outer loop
      vertex 13.839 25.4 23.8399
      vertex 0 25.4 35.56
      vertex 15.3428 25.4 26.028
    endloop
  endfacet
  facet normal 0 1 -0
    outer loop
      vertex 12.823 25.4 21.387
      vertex 0 25.4 35.56
      vertex 13.839 25.4 23.8399
    endloop
  endfacet
  facet normal 0 1 -0
    outer loop
      vertex 12.3391 25.4 18.7764
      vertex 0 25.4 35.56
      vertex 12.823 25.4 21.387
    endloop
  endfacet
  facet normal 0 1 0
    outer loop
      vertex 0 25.4 2.67029e-07
      vertex 12.3391 25.4 18.7764
      vertex 12.4086 25.4 16.1223
    endloop
  endfacet
  facet normal 0 1 0
    outer loop
      vertex 0 25.4 2.67029e-07
      vertex 12.4086 25.4 16.1223
      vertex 13.0285 25.4 13.5407
    endloop
  endfacet
  facet normal 0 1 0
    outer loop
      vertex 0 25.4 2.67029e-07
      vertex 13.0285 25.4 13.5407
      vertex 14.1715 25.4 11.1443
    endloop
  endfacet
  facet normal 0 1 0
    outer loop
      vertex 25.1263 25.4 2.99608
      vertex 22.6856 25.4 5.29266
      vertex 22.842 25.4 5.28035
    endloop
  endfacet
  facet normal 0 1 0
    outer loop
      vertex 25.4 25.4 2.67029e-07
      vertex 22.6856 25.4 5.29266
      vertex 25.1263 25.4 2.99608
    endloop
  endfacet
  facet normal 0 1 0
    outer loop
      vertex 22.6856 25.4 5.29266
      vertex 25.4 25.4 2.67029e-07
      vertex 20.1399 25.4 6.04673
    endloop
  endfacet
  facet normal 0 1 0
    outer loop
      vertex 0 25.4 2.67029e-07
      vertex 20.1399 25.4 6.04673
      vertex 25.4 25.4 2.67029e-07
    endloop
  endfacet
  facet normal 0 1 0
    outer loop
      vertex 20.1399 25.4 6.04673
      vertex 0 25.4 2.67029e-07
      vertex 17.8066 25.4 7.3136
    endloop
  endfacet
  facet normal 0 1 0
    outer loop
      vertex 12.3391 25.4 18.7764
      vertex 0 25.4 2.67029e-07
      vertex 0 25.4 35.56
    endloop
  endfacet
  facet normal 0 1 0
    outer loop
      vertex 15.7877 25.4 9.0379
      vertex 0 25.4 2.67029e-07
      vertex 14.1715 25.4 11.1443
    endloop
  endfacet
  facet normal 0 1 0
    outer loop
      vertex 17.8066 25.4 7.3136
      vertex 0 25.4 2.67029e-07
      vertex 15.7877 25.4 9.0379
    endloop
  endfacet
  facet normal 0.707102 -0 0.707111
    outer loop
      vertex 22.842 0 5.28035
      vertex 25.1263 25.4 2.99608
      vertex 22.842 25.4 5.28035
    endloop
  endfacet
  facet normal 0.707102 0 0.707111
    outer loop
      vertex 25.1263 25.4 2.99608
      vertex 22.842 0 5.28035
      vertex 25.1263 0 2.99608
    endloop
  endfacet
  facet normal 0 0 -1
    outer loop
      vertex 25.1263 0 32.5639
      vertex 25.4 25.4 32.5639
      vertex 25.4 0 32.5639
    endloop
  endfacet
  facet normal -0 0 -1
    outer loop
      vertex 25.4 25.4 32.5639
      vertex 25.1263 0 32.5639
      vertex 25.1263 25.4 32.5639
    endloop
  endfacet
  facet normal -0 0 1
    outer loop
      vertex 25.1263 25.4 2.99608
      vertex 25.4 0 2.99608
      vertex 25.4 25.4 2.99608
    endloop
  endfacet
  facet normal 0 0 1
    outer loop
      vertex 25.4 0 2.99608
      vertex 25.1263 25.4 2.99608
      vertex 25.1263 0 2.99608
    endloop
  endfacet
  facet normal 0.707107 0 -0.707107
    outer loop
      vertex 25.1263 0 32.5639
      vertex 22.791 25.4 30.2286
      vertex 25.1263 25.4 32.5639
    endloop
  endfacet
  facet normal 0.707107 0 -0.707107
    outer loop
      vertex 22.791 25.4 30.2286
      vertex 25.1263 0 32.5639
      vertex 22.791 0 30.2286
    endloop
  endfacet
  facet normal 0.477156 0 0.878818
    outer loop
      vertex 17.8066 25.4 7.3136
      vertex 20.1399 0 6.04673
      vertex 20.1399 25.4 6.04673
    endloop
  endfacet
  facet normal 0.477156 0 0.878818
    outer loop
      vertex 20.1399 0 6.04673
      vertex 17.8066 25.4 7.3136
      vertex 17.8066 0 7.3136
    endloop
  endfacet
  facet normal 0.97236 -0 0.233485
    outer loop
      vertex 12.4086 10.7589 16.1223
      vertex 13.0285 25.4 13.5407
      vertex 12.4086 25.4 16.1223
    endloop
  endfacet
  facet normal 0.971392 0.00074537 0.23748
    outer loop
      vertex 12.4123 10.7479 16.1072
      vertex 13.0285 25.4 13.5407
      vertex 12.4086 10.7589 16.1223
    endloop
  endfacet
  facet normal 0.972399 -2.47506e-05 0.233325
    outer loop
      vertex 12.4962 10.3595 15.7575
      vertex 13.0285 25.4 13.5407
      vertex 12.4123 10.7479 16.1072
    endloop
  endfacet
  facet normal 0.972339 1.41505e-05 0.233575
    outer loop
      vertex 12.559 9.90684 15.4961
      vertex 13.0285 25.4 13.5407
      vertex 12.4962 10.3595 15.7575
    endloop
  endfacet
  facet normal 0.972341 1.26703e-05 0.233564
    outer loop
      vertex 12.5978 9.40978 15.3346
      vertex 13.0285 25.4 13.5407
      vertex 12.559 9.90684 15.4961
    endloop
  endfacet
  facet normal 0.972385 -8.68711e-06 0.233384
    outer loop
      vertex 12.6109 8.89 15.28
      vertex 13.0285 25.4 13.5407
      vertex 12.5978 9.40978 15.3346
    endloop
  endfacet
  facet normal 0.972379 1.12883e-05 0.233407
    outer loop
      vertex 13.0285 0 13.5407
      vertex 12.6109 8.89 15.28
      vertex 12.5978 8.37022 15.3346
    endloop
  endfacet
  facet normal 0.97236 0 0.233485
    outer loop
      vertex 13.0285 0 13.5407
      vertex 12.4086 7.02114 16.1223
      vertex 12.4086 0 16.1223
    endloop
  endfacet
  facet normal 0.971499 -0.00138356 0.237041
    outer loop
      vertex 12.4086 7.02114 16.1223
      vertex 13.0285 0 13.5407
      vertex 12.4123 7.03214 16.1072
    endloop
  endfacet
  facet normal 0.972394 4.38341e-05 0.233345
    outer loop
      vertex 12.4123 7.03214 16.1072
      vertex 13.0285 0 13.5407
      vertex 12.4962 7.42054 15.7575
    endloop
  endfacet
  facet normal 0.972343 -2.37279e-05 0.233559
    outer loop
      vertex 12.4962 7.42054 15.7575
      vertex 13.0285 0 13.5407
      vertex 12.559 7.87316 15.4961
    endloop
  endfacet
  facet normal 0.972346 -1.96206e-05 0.233544
    outer loop
      vertex 12.559 7.87316 15.4961
      vertex 13.0285 0 13.5407
      vertex 12.5978 8.37022 15.3346
    endloop
  endfacet
  facet normal 0.972366 0 0.233462
    outer loop
      vertex 12.6109 8.89 15.28
      vertex 13.0285 0 13.5407
      vertex 13.0285 25.4 13.5407
    endloop
  endfacet
  facet normal 0.0784658 0 0.996917
    outer loop
      vertex 22.6856 25.4 5.29266
      vertex 22.842 0 5.28035
      vertex 22.842 25.4 5.28035
    endloop
  endfacet
  facet normal 0.0784658 0 0.996917
    outer loop
      vertex 22.842 0 5.28035
      vertex 22.6856 25.4 5.29266
      vertex 22.6856 0 5.29266
    endloop
  endfacet
  facet normal 0.793371 -0 0.608738
    outer loop
      vertex 14.1715 0 11.1443
      vertex 15.7877 25.4 9.0379
      vertex 14.1715 25.4 11.1443
    endloop
  endfacet
  facet normal 0.793371 0 0.608738
    outer loop
      vertex 15.7877 25.4 9.0379
      vertex 14.1715 0 11.1443
      vertex 15.7877 0 9.0379
    endloop
  endfacet
  facet normal 0.649447 0 0.760407
    outer loop
      vertex 15.7877 25.4 9.0379
      vertex 17.8066 0 7.3136
      vertex 17.8066 25.4 7.3136
    endloop
  endfacet
  facet normal 0.649447 0 0.760407
    outer loop
      vertex 17.8066 0 7.3136
      vertex 15.7877 25.4 9.0379
      vertex 15.7877 0 9.0379
    endloop
  endfacet
  facet normal 0.902589 -0 0.430504
    outer loop
      vertex 13.0285 0 13.5407
      vertex 14.1715 25.4 11.1443
      vertex 13.0285 25.4 13.5407
    endloop
  endfacet
  facet normal 0.902589 0 0.430504
    outer loop
      vertex 14.1715 25.4 11.1443
      vertex 13.0285 0 13.5407
      vertex 14.1715 0 11.1443
    endloop
  endfacet
  facet normal 0.923883 0 -0.382676
    outer loop
      vertex 13.839 0 23.8399
      vertex 12.823 25.4 21.387
      vertex 13.839 25.4 23.8399
    endloop
  endfacet
  facet normal 0.923883 0 -0.382676
    outer loop
      vertex 12.823 25.4 21.387
      vertex 13.839 0 23.8399
      vertex 12.823 0 21.387
    endloop
  endfacet
  facet normal 0.999657 2.08831e-06 0.0262061
    outer loop
      vertex 12.3721 11.3763 17.5187
      vertex 12.3391 25.4 18.7764
      vertex 12.3584 11.3763 18.0413
    endloop
  endfacet
  facet normal 0.999657 2.18167e-06 0.0262043
    outer loop
      vertex 12.3391 25.4 18.7764
      vertex 12.345 11.2676 18.5525
      vertex 12.3584 11.3763 18.0413
    endloop
  endfacet
  facet normal 0.999653 0 0.0263419
    outer loop
      vertex 12.345 11.2676 18.5525
      vertex 12.3391 25.4 18.7764
      vertex 12.3391 11.168 18.7764
    endloop
  endfacet
  facet normal 0.999657 4.70415e-06 0.0261769
    outer loop
      vertex 12.3391 25.4 18.7764
      vertex 12.3721 11.3763 17.5187
      vertex 12.4086 25.4 16.1223
    endloop
  endfacet
  facet normal 0.999657 7.23179e-06 0.0262023
    outer loop
      vertex 12.3855 11.2676 17.0075
      vertex 12.4086 25.4 16.1223
      vertex 12.3721 11.3763 17.5187
    endloop
  endfacet
  facet normal 0.999658 5.00814e-06 0.0261668
    outer loop
      vertex 12.398 11.0551 16.53
      vertex 12.4086 25.4 16.1223
      vertex 12.3855 11.2676 17.0075
    endloop
  endfacet
  facet normal 0.999662 0 0.0259907
    outer loop
      vertex 12.4086 25.4 16.1223
      vertex 12.398 11.0551 16.53
      vertex 12.4086 10.7589 16.1223
    endloop
  endfacet
  facet normal 0.999657 -4.57326e-06 0.0262061
    outer loop
      vertex 12.3584 6.4037 18.0413
      vertex 12.3391 0 18.7764
      vertex 12.3721 6.4037 17.5187
    endloop
  endfacet
  facet normal 0.999657 -4.71591e-06 0.0262048
    outer loop
      vertex 12.345 6.51236 18.5525
      vertex 12.3391 0 18.7764
      vertex 12.3584 6.4037 18.0413
    endloop
  endfacet
  facet normal 0.999653 -0 0.0263419
    outer loop
      vertex 12.3391 0 18.7764
      vertex 12.345 6.51236 18.5525
      vertex 12.3391 6.61204 18.7764
    endloop
  endfacet
  facet normal 0.999657 -1.03018e-05 0.0261769
    outer loop
      vertex 12.4086 0 16.1223
      vertex 12.3721 6.4037 17.5187
      vertex 12.3391 0 18.7764
    endloop
  endfacet
  facet normal 0.999657 -1.54561e-05 0.0262005
    outer loop
      vertex 12.3721 6.4037 17.5187
      vertex 12.4086 0 16.1223
      vertex 12.3855 6.51236 17.0075
    endloop
  endfacet
  facet normal 0.999658 -1.05336e-05 0.0261644
    outer loop
      vertex 12.3855 6.51236 17.0075
      vertex 12.4086 0 16.1223
      vertex 12.398 6.72494 16.53
    endloop
  endfacet
  facet normal 0.999662 0 0.0259907
    outer loop
      vertex 12.398 6.72494 16.53
      vertex 12.4086 0 16.1223
      vertex 12.4086 7.02114 16.1223
    endloop
  endfacet
  facet normal 0.130522 0 -0.991445
    outer loop
      vertex 22.0352 0 30.1291
      vertex 22.791 25.4 30.2286
      vertex 22.791 0 30.2286
    endloop
  endfacet
  facet normal 0.130522 0 -0.991445
    outer loop
      vertex 22.791 25.4 30.2286
      vertex 22.0352 0 30.1291
      vertex 22.0352 25.4 30.1291
    endloop
  endfacet
  facet normal 0.522483 0 -0.85265
    outer loop
      vertex 17.2687 0 27.8556
      vertex 19.5325 25.4 29.2428
      vertex 19.5325 0 29.2428
    endloop
  endfacet
  facet normal 0.522483 0 -0.85265
    outer loop
      vertex 19.5325 25.4 29.2428
      vertex 17.2687 0 27.8556
      vertex 17.2687 25.4 27.8556
    endloop
  endfacet
  facet normal 0.824133 0 -0.566396
    outer loop
      vertex 15.3428 0 26.028
      vertex 13.839 25.4 23.8399
      vertex 15.3428 25.4 26.028
    endloop
  endfacet
  facet normal 0.824133 0 -0.566396
    outer loop
      vertex 13.839 25.4 23.8399
      vertex 15.3428 0 26.028
      vertex 13.839 0 23.8399
    endloop
  endfacet
  facet normal 0.284015 0 0.95882
    outer loop
      vertex 20.1399 25.4 6.04673
      vertex 22.6856 0 5.29266
      vertex 22.6856 25.4 5.29266
    endloop
  endfacet
  facet normal 0.284015 0 0.95882
    outer loop
      vertex 22.6856 0 5.29266
      vertex 20.1399 25.4 6.04673
      vertex 20.1399 0 6.04673
    endloop
  endfacet
  facet normal 0.983251 0 -0.182255
    outer loop
      vertex 12.823 25.4 21.387
      vertex 12.3391 11.168 18.7764
      vertex 12.3391 25.4 18.7764
    endloop
  endfacet
  facet normal 0.983256 -4.74505e-06 -0.18223
    outer loop
      vertex 12.823 25.4 21.387
      vertex 12.3861 11.0551 19.03
      vertex 12.3391 11.168 18.7764
    endloop
  endfacet
  facet normal 0.98324 9.77289e-06 -0.182316
    outer loop
      vertex 12.823 25.4 21.387
      vertex 12.4645 10.7479 19.4528
      vertex 12.3861 11.0551 19.03
    endloop
  endfacet
  facet normal 0.98326 -5.23673e-06 -0.182206
    outer loop
      vertex 12.823 25.4 21.387
      vertex 12.5293 10.3595 19.8025
      vertex 12.4645 10.7479 19.4528
    endloop
  endfacet
  facet normal 0.983225 1.58773e-05 -0.182399
    outer loop
      vertex 12.823 25.4 21.387
      vertex 12.5778 9.90684 20.0639
      vertex 12.5293 10.3595 19.8025
    endloop
  endfacet
  facet normal 0.983283 -1.21704e-05 -0.182082
    outer loop
      vertex 12.823 25.4 21.387
      vertex 12.6077 9.40978 20.2254
      vertex 12.5778 9.90684 20.0639
    endloop
  endfacet
  facet normal 0.983291 -1.546e-05 -0.182038
    outer loop
      vertex 12.823 25.4 21.387
      vertex 12.6178 8.89 20.28
      vertex 12.6077 9.40978 20.2254
    endloop
  endfacet
  facet normal 0.98325 0 -0.182261
    outer loop
      vertex 12.823 0 21.387
      vertex 12.6178 8.89 20.28
      vertex 12.823 25.4 21.387
    endloop
  endfacet
  facet normal 0.983281 2.15234e-05 -0.182094
    outer loop
      vertex 12.823 0 21.387
      vertex 12.6077 8.37022 20.2254
      vertex 12.6178 8.89 20.28
    endloop
  endfacet
  facet normal 0.983279 1.99339e-05 -0.182105
    outer loop
      vertex 12.823 0 21.387
      vertex 12.5778 7.87316 20.0639
      vertex 12.6077 8.37022 20.2254
    endloop
  endfacet
  facet normal 0.983228 -2.77808e-05 -0.182379
    outer loop
      vertex 12.823 0 21.387
      vertex 12.5293 7.42054 19.8025
      vertex 12.5778 7.87316 20.0639
    endloop
  endfacet
  facet normal 0.98326 9.58334e-06 -0.18221
    outer loop
      vertex 12.823 0 21.387
      vertex 12.4645 7.03214 19.4528
      vertex 12.5293 7.42054 19.8025
    endloop
  endfacet
  facet normal 0.983241 -1.85989e-05 -0.182309
    outer loop
      vertex 12.823 0 21.387
      vertex 12.3861 6.72494 19.03
      vertex 12.4645 7.03214 19.4528
    endloop
  endfacet
  facet normal 0.983256 9.39592e-06 -0.182232
    outer loop
      vertex 12.823 0 21.387
      vertex 12.3391 6.61204 18.7764
      vertex 12.3861 6.72494 19.03
    endloop
  endfacet
  facet normal 0.983251 0 -0.182255
    outer loop
      vertex 12.3391 6.61204 18.7764
      vertex 12.823 0 21.387
      vertex 12.3391 0 18.7764
    endloop
  endfacet
  facet normal 0.333823 0 -0.942636
    outer loop
      vertex 19.5325 0 29.2428
      vertex 22.0352 25.4 30.1291
      vertex 22.0352 0 30.1291
    endloop
  endfacet
  facet normal 0.333823 0 -0.942636
    outer loop
      vertex 22.0352 25.4 30.1291
      vertex 19.5325 0 29.2428
      vertex 19.5325 25.4 29.2428
    endloop
  endfacet
  facet normal 0.688352 0 -0.725376
    outer loop
      vertex 15.3428 0 26.028
      vertex 17.2687 25.4 27.8556
      vertex 17.2687 0 27.8556
    endloop
  endfacet
  facet normal 0.688352 0 -0.725376
    outer loop
      vertex 17.2687 25.4 27.8556
      vertex 15.3428 0 26.028
      vertex 15.3428 25.4 26.028
    endloop
  endfacet
  facet normal 0 -0.10447 -0.994528
    outer loop
      vertex 2.54 8.89 20.28
      vertex 12.6077 9.40978 20.2254
      vertex 12.6178 8.89 20.28
    endloop
  endfacet
  facet normal -0 -0.10447 -0.994528
    outer loop
      vertex 12.6077 9.40978 20.2254
      vertex 2.54 8.89 20.28
      vertex 2.54 9.40978 20.2254
    endloop
  endfacet
  facet normal 0 -0.669113 0.743161
    outer loop
      vertex 2.54 10.3595 15.7575
      vertex 12.4123 10.7479 16.1072
      vertex 2.54 10.7479 16.1072
    endloop
  endfacet
  facet normal 0 -0.669113 0.743161
    outer loop
      vertex 12.4123 10.7479 16.1072
      vertex 2.54 10.3595 15.7575
      vertex 12.4962 10.3595 15.7575
    endloop
  endfacet
  facet normal 0 -1 0
    outer loop
      vertex 2.54 11.3763 17.5187
      vertex 12.3584 11.3763 18.0413
      vertex 2.54 11.3763 18.0413
    endloop
  endfacet
  facet normal 0 -1 -0
    outer loop
      vertex 12.3584 11.3763 18.0413
      vertex 2.54 11.3763 17.5187
      vertex 12.3721 11.3763 17.5187
    endloop
  endfacet
  facet normal 0 -0.978132 0.207987
    outer loop
      vertex 2.54 11.2676 17.0075
      vertex 12.3721 11.3763 17.5187
      vertex 2.54 11.3763 17.5187
    endloop
  endfacet
  facet normal 0 -0.978132 0.207987
    outer loop
      vertex 12.3721 11.3763 17.5187
      vertex 2.54 11.2676 17.0075
      vertex 12.3855 11.2676 17.0075
    endloop
  endfacet
  facet normal 0 -0.913559 -0.406707
    outer loop
      vertex 2.54 11.0551 19.03
      vertex 12.3391 11.168 18.7764
      vertex 12.3861 11.0551 19.03
    endloop
  endfacet
  facet normal 3.8563e-06 -0.913614 -0.406582
    outer loop
      vertex 2.54 11.2676 18.5525
      vertex 12.3391 11.168 18.7764
      vertex 2.54 11.0551 19.03
    endloop
  endfacet
  facet normal 0 -0.913677 -0.406441
    outer loop
      vertex 12.3391 11.168 18.7764
      vertex 2.54 11.2676 18.5525
      vertex 12.345 11.2676 18.5525
    endloop
  endfacet
  facet normal 0 -0.309009 -0.951059
    outer loop
      vertex 2.54 9.40978 20.2254
      vertex 12.5778 9.90684 20.0639
      vertex 12.6077 9.40978 20.2254
    endloop
  endfacet
  facet normal -0 -0.309009 -0.951059
    outer loop
      vertex 12.5778 9.90684 20.0639
      vertex 2.54 9.40978 20.2254
      vertex 2.54 9.90684 20.0639
    endloop
  endfacet
  facet normal -0 0.10447 0.994528
    outer loop
      vertex 2.54 8.89 15.28
      vertex 12.5978 8.37022 15.3346
      vertex 12.6109 8.89 15.28
    endloop
  endfacet
  facet normal 0 0.10447 0.994528
    outer loop
      vertex 12.5978 8.37022 15.3346
      vertex 2.54 8.89 15.28
      vertex 2.54 8.37022 15.3346
    endloop
  endfacet
  facet normal -0 0.978147 0.207914
    outer loop
      vertex 2.54 6.51236 17.0075
      vertex 12.3721 6.4037 17.5187
      vertex 12.3855 6.51236 17.0075
    endloop
  endfacet
  facet normal 0 0.978147 0.207914
    outer loop
      vertex 12.3721 6.4037 17.5187
      vertex 2.54 6.51236 17.0075
      vertex 2.54 6.4037 17.5187
    endloop
  endfacet
  facet normal 0 -0.309009 0.951059
    outer loop
      vertex 2.54 9.40978 15.3346
      vertex 12.559 9.90684 15.4961
      vertex 2.54 9.90684 15.4961
    endloop
  endfacet
  facet normal 0 -0.309009 0.951059
    outer loop
      vertex 12.559 9.90684 15.4961
      vertex 2.54 9.40978 15.3346
      vertex 12.5978 9.40978 15.3346
    endloop
  endfacet
  facet normal 0 -0.500081 0.865978
    outer loop
      vertex 2.54 9.90684 15.4961
      vertex 12.4962 10.3595 15.7575
      vertex 2.54 10.3595 15.7575
    endloop
  endfacet
  facet normal 0 -0.500081 0.865978
    outer loop
      vertex 12.4962 10.3595 15.7575
      vertex 2.54 9.90684 15.4961
      vertex 12.559 9.90684 15.4961
    endloop
  endfacet
  facet normal 0 -0.913614 0.406582
    outer loop
      vertex 2.54 11.0551 16.53
      vertex 12.3855 11.2676 17.0075
      vertex 2.54 11.2676 17.0075
    endloop
  endfacet
  facet normal 0 -0.913614 0.406582
    outer loop
      vertex 12.3855 11.2676 17.0075
      vertex 2.54 11.0551 16.53
      vertex 12.398 11.0551 16.53
    endloop
  endfacet
  facet normal 0 -0.500081 -0.865978
    outer loop
      vertex 2.54 9.90684 20.0639
      vertex 12.5293 10.3595 19.8025
      vertex 12.5778 9.90684 20.0639
    endloop
  endfacet
  facet normal -0 -0.500081 -0.865978
    outer loop
      vertex 12.5293 10.3595 19.8025
      vertex 2.54 9.90684 20.0639
      vertex 2.54 10.3595 19.8025
    endloop
  endfacet
  facet normal -0 -0.809001 -0.587808
    outer loop
      vertex 12.3861 11.0551 19.03
      vertex 2.54 10.7479 19.4528
      vertex 2.54 11.0551 19.03
    endloop
  endfacet
  facet normal 0 -0.809001 -0.587808
    outer loop
      vertex 2.54 10.7479 19.4528
      vertex 12.3861 11.0551 19.03
      vertex 12.4645 10.7479 19.4528
    endloop
  endfacet
  facet normal 0 -0.978132 -0.207987
    outer loop
      vertex 2.54 11.3763 18.0413
      vertex 12.345 11.2676 18.5525
      vertex 2.54 11.2676 18.5525
    endloop
  endfacet
  facet normal 0 -0.978132 -0.207987
    outer loop
      vertex 12.345 11.2676 18.5525
      vertex 2.54 11.3763 18.0413
      vertex 12.3584 11.3763 18.0413
    endloop
  endfacet
  facet normal 0 -0.669113 -0.743161
    outer loop
      vertex 2.54 10.3595 19.8025
      vertex 12.4645 10.7479 19.4528
      vertex 12.5293 10.3595 19.8025
    endloop
  endfacet
  facet normal -0 -0.669113 -0.743161
    outer loop
      vertex 12.4645 10.7479 19.4528
      vertex 2.54 10.3595 19.8025
      vertex 2.54 10.7479 19.4528
    endloop
  endfacet
  facet normal 0 -0.10447 0.994528
    outer loop
      vertex 2.54 8.89 15.28
      vertex 12.5978 9.40978 15.3346
      vertex 2.54 9.40978 15.3346
    endloop
  endfacet
  facet normal 0 -0.10447 0.994528
    outer loop
      vertex 12.5978 9.40978 15.3346
      vertex 2.54 8.89 15.28
      vertex 12.6109 8.89 15.28
    endloop
  endfacet
  facet normal 0 0.10447 -0.994528
    outer loop
      vertex 2.54 8.89 20.28
      vertex 12.6077 8.37022 20.2254
      vertex 2.54 8.37022 20.2254
    endloop
  endfacet
  facet normal 0 0.10447 -0.994528
    outer loop
      vertex 12.6077 8.37022 20.2254
      vertex 2.54 8.89 20.28
      vertex 12.6178 8.89 20.28
    endloop
  endfacet
  facet normal 2.42894e-06 0.809028 0.587771
    outer loop
      vertex 2.54 7.03214 16.1072
      vertex 12.398 6.72494 16.53
      vertex 12.4086 7.02114 16.1223
    endloop
  endfacet
  facet normal -0 0.808273 0.588808
    outer loop
      vertex 2.54 7.03214 16.1072
      vertex 12.4086 7.02114 16.1223
      vertex 12.4123 7.03214 16.1072
    endloop
  endfacet
  facet normal 0 0.809001 0.587808
    outer loop
      vertex 12.398 6.72494 16.53
      vertex 2.54 7.03214 16.1072
      vertex 2.54 6.72494 16.53
    endloop
  endfacet
  facet normal 0 -0.809001 0.587808
    outer loop
      vertex 2.54 10.7479 16.1072
      vertex 12.398 11.0551 16.53
      vertex 2.54 11.0551 16.53
    endloop
  endfacet
  facet normal 2.42894e-06 -0.809028 0.587771
    outer loop
      vertex 12.398 11.0551 16.53
      vertex 2.54 10.7479 16.1072
      vertex 12.4086 10.7589 16.1223
    endloop
  endfacet
  facet normal 0 -0.808273 0.588808
    outer loop
      vertex 12.4086 10.7589 16.1223
      vertex 2.54 10.7479 16.1072
      vertex 12.4123 10.7479 16.1072
    endloop
  endfacet
  facet normal -0 0.500114 0.865959
    outer loop
      vertex 2.54 7.87316 15.4961
      vertex 12.4962 7.42054 15.7575
      vertex 12.559 7.87316 15.4961
    endloop
  endfacet
  facet normal 0 0.500114 0.865959
    outer loop
      vertex 12.4962 7.42054 15.7575
      vertex 2.54 7.87316 15.4961
      vertex 2.54 7.42054 15.7575
    endloop
  endfacet
  facet normal 0 0.500114 -0.865959
    outer loop
      vertex 2.54 7.87316 20.0639
      vertex 12.5293 7.42054 19.8025
      vertex 2.54 7.42054 19.8025
    endloop
  endfacet
  facet normal 0 0.500114 -0.865959
    outer loop
      vertex 12.5293 7.42054 19.8025
      vertex 2.54 7.87316 20.0639
      vertex 12.5778 7.87316 20.0639
    endloop
  endfacet
  facet normal 0 1 0
    outer loop
      vertex 2.54 6.4037 17.5187
      vertex 12.3584 6.4037 18.0413
      vertex 12.3721 6.4037 17.5187
    endloop
  endfacet
  facet normal 0 1 0
    outer loop
      vertex 12.3584 6.4037 18.0413
      vertex 2.54 6.4037 17.5187
      vertex 2.54 6.4037 18.0413
    endloop
  endfacet
  facet normal -0 0.913557 0.40671
    outer loop
      vertex 2.54 6.72494 16.53
      vertex 12.3855 6.51236 17.0075
      vertex 12.398 6.72494 16.53
    endloop
  endfacet
  facet normal 0 0.913557 0.40671
    outer loop
      vertex 12.3855 6.51236 17.0075
      vertex 2.54 6.72494 16.53
      vertex 2.54 6.51236 17.0075
    endloop
  endfacet
  facet normal -0 0.309009 0.951059
    outer loop
      vertex 2.54 8.37022 15.3346
      vertex 12.559 7.87316 15.4961
      vertex 12.5978 8.37022 15.3346
    endloop
  endfacet
  facet normal 0 0.309009 0.951059
    outer loop
      vertex 12.559 7.87316 15.4961
      vertex 2.54 8.37022 15.3346
      vertex 2.54 7.87316 15.4961
    endloop
  endfacet
  facet normal 0 0.309009 -0.951059
    outer loop
      vertex 2.54 8.37022 20.2254
      vertex 12.5778 7.87316 20.0639
      vertex 2.54 7.87316 20.0639
    endloop
  endfacet
  facet normal 0 0.309009 -0.951059
    outer loop
      vertex 12.5778 7.87316 20.0639
      vertex 2.54 8.37022 20.2254
      vertex 12.6077 8.37022 20.2254
    endloop
  endfacet
  facet normal 0 0.669113 -0.743161
    outer loop
      vertex 2.54 7.42054 19.8025
      vertex 12.4645 7.03214 19.4528
      vertex 2.54 7.03214 19.4528
    endloop
  endfacet
  facet normal 0 0.669113 -0.743161
    outer loop
      vertex 12.4645 7.03214 19.4528
      vertex 2.54 7.42054 19.8025
      vertex 12.5293 7.42054 19.8025
    endloop
  endfacet
  facet normal 0 0.978147 -0.207914
    outer loop
      vertex 2.54 6.4037 18.0413
      vertex 12.345 6.51236 18.5525
      vertex 12.3584 6.4037 18.0413
    endloop
  endfacet
  facet normal 0 0.978147 -0.207914
    outer loop
      vertex 12.345 6.51236 18.5525
      vertex 2.54 6.4037 18.0413
      vertex 2.54 6.51236 18.5525
    endloop
  endfacet
  facet normal -0 0.669113 0.743161
    outer loop
      vertex 2.54 7.42054 15.7575
      vertex 12.4123 7.03214 16.1072
      vertex 12.4962 7.42054 15.7575
    endloop
  endfacet
  facet normal 0 0.669113 0.743161
    outer loop
      vertex 12.4123 7.03214 16.1072
      vertex 2.54 7.42054 15.7575
      vertex 2.54 7.03214 16.1072
    endloop
  endfacet
  facet normal 0 0.913559 -0.406707
    outer loop
      vertex 12.3391 6.61204 18.7764
      vertex 2.54 6.72494 19.03
      vertex 12.3861 6.72494 19.03
    endloop
  endfacet
  facet normal 0 0.913556 -0.406714
    outer loop
      vertex 2.54 6.51236 18.5525
      vertex 12.3391 6.61204 18.7764
      vertex 12.345 6.51236 18.5525
    endloop
  endfacet
  facet normal -1.05041e-07 0.913557 -0.40671
    outer loop
      vertex 12.3391 6.61204 18.7764
      vertex 2.54 6.51236 18.5525
      vertex 2.54 6.72494 19.03
    endloop
  endfacet
  facet normal 0 0.809001 -0.587808
    outer loop
      vertex 12.3861 6.72494 19.03
      vertex 2.54 7.03214 19.4528
      vertex 12.4645 7.03214 19.4528
    endloop
  endfacet
  facet normal 0 0.809001 -0.587808
    outer loop
      vertex 2.54 7.03214 19.4528
      vertex 12.3861 6.72494 19.03
      vertex 2.54 6.72494 19.03
    endloop
  endfacet
  facet normal 0 -0.104554 0.994519
    outer loop
      vertex 0 8.98026 12.7895
      vertex 2.54 9.92956 12.8893
      vertex 0 9.92956 12.8893
    endloop
  endfacet
  facet normal 3.91784e-06 -0.104564 0.994518
    outer loop
      vertex 2.54 9.92956 12.8893
      vertex 0 8.98026 12.7895
      vertex 2.54 8.89 12.78
    endloop
  endfacet
  facet normal 0 -0.104673 0.994507
    outer loop
      vertex 2.54 8.89 12.78
      vertex 0 8.98026 12.7895
      vertex -0.0902559 8.89 12.78
    endloop
  endfacet
  facet normal 3.91784e-06 -0.104564 -0.994518
    outer loop
      vertex 2.54 8.89 22.78
      vertex 0 8.98026 22.7705
      vertex 2.54 9.92956 22.6707
    endloop
  endfacet
  facet normal 0 -0.104673 -0.994507
    outer loop
      vertex 0 8.98026 22.7705
      vertex 2.54 8.89 22.78
      vertex -0.0902559 8.89 22.78
    endloop
  endfacet
  facet normal -0 -0.104554 -0.994519
    outer loop
      vertex 2.54 9.92956 22.6707
      vertex 0 8.98026 22.7705
      vertex 0 9.92956 22.6707
    endloop
  endfacet
  facet normal 0 -0.669113 -0.743161
    outer loop
      vertex 0 11.8289 21.8251
      vertex 2.54 12.6057 21.1257
      vertex 2.54 11.8289 21.8251
    endloop
  endfacet
  facet normal -0 -0.669113 -0.743161
    outer loop
      vertex 2.54 12.6057 21.1257
      vertex 0 11.8289 21.8251
      vertex 0 12.6057 21.1257
    endloop
  endfacet
  facet normal 0 -0.499987 -0.866033
    outer loop
      vertex 0 10.9237 22.3477
      vertex 2.54 11.8289 21.8251
      vertex 2.54 10.9237 22.3477
    endloop
  endfacet
  facet normal -0 -0.499987 -0.866033
    outer loop
      vertex 2.54 11.8289 21.8251
      vertex 0 10.9237 22.3477
      vertex 0 11.8289 21.8251
    endloop
  endfacet
  facet normal 0 -0.913527 -0.406777
    outer loop
      vertex 0 13.6453 19.3251
      vertex 2.54 13.2201 20.28
      vertex 0 13.2201 20.28
    endloop
  endfacet
  facet normal 0 -0.913527 -0.406777
    outer loop
      vertex 2.54 13.2201 20.28
      vertex 0 13.6453 19.3251
      vertex 2.54 13.6453 19.3251
    endloop
  endfacet
  facet normal 0 -0.309003 0.951061
    outer loop
      vertex 0 10.9237 13.2123
      vertex 2.54 9.92956 12.8893
      vertex 2.54 10.9237 13.2123
    endloop
  endfacet
  facet normal 0 -0.309003 0.951061
    outer loop
      vertex 2.54 9.92956 12.8893
      vertex 0 10.9237 13.2123
      vertex 0 9.92956 12.8893
    endloop
  endfacet
  facet normal 0 -0.669113 0.743161
    outer loop
      vertex 0 12.6057 14.4343
      vertex 2.54 11.8289 13.7349
      vertex 2.54 12.6057 14.4343
    endloop
  endfacet
  facet normal 0 -0.669113 0.743161
    outer loop
      vertex 2.54 11.8289 13.7349
      vertex 0 12.6057 14.4343
      vertex 0 11.8289 13.7349
    endloop
  endfacet
  facet normal 0 -1 0
    outer loop
      vertex 0 13.8626 17.2574
      vertex 2.54 13.8626 18.3026
      vertex 0 13.8626 18.3026
    endloop
  endfacet
  facet normal 0 -1 -0
    outer loop
      vertex 2.54 13.8626 18.3026
      vertex 0 13.8626 17.2574
      vertex 2.54 13.8626 17.2574
    endloop
  endfacet
  facet normal 0 -0.913527 0.406777
    outer loop
      vertex 0 13.2201 15.28
      vertex 2.54 13.6453 16.2349
      vertex 0 13.6453 16.2349
    endloop
  endfacet
  facet normal 0 -0.913527 0.406777
    outer loop
      vertex 2.54 13.6453 16.2349
      vertex 0 13.2201 15.28
      vertex 2.54 13.2201 15.28
    endloop
  endfacet
  facet normal 0 -0.309003 -0.951061
    outer loop
      vertex 0 9.92956 22.6707
      vertex 2.54 10.9237 22.3477
      vertex 2.54 9.92956 22.6707
    endloop
  endfacet
  facet normal -0 -0.309003 -0.951061
    outer loop
      vertex 2.54 10.9237 22.3477
      vertex 0 9.92956 22.6707
      vertex 0 10.9237 22.3477
    endloop
  endfacet
  facet normal 0 -0.809034 -0.587762
    outer loop
      vertex 0 13.2201 20.28
      vertex 2.54 12.6057 21.1257
      vertex 0 12.6057 21.1257
    endloop
  endfacet
  facet normal 0 -0.809034 -0.587762
    outer loop
      vertex 2.54 12.6057 21.1257
      vertex 0 13.2201 20.28
      vertex 2.54 13.2201 20.28
    endloop
  endfacet
  facet normal 0 -0.978155 -0.207876
    outer loop
      vertex 0 13.8626 18.3026
      vertex 2.54 13.6453 19.3251
      vertex 0 13.6453 19.3251
    endloop
  endfacet
  facet normal 0 -0.978155 -0.207876
    outer loop
      vertex 2.54 13.6453 19.3251
      vertex 0 13.8626 18.3026
      vertex 2.54 13.8626 18.3026
    endloop
  endfacet
  facet normal -0 0.104564 0.994518
    outer loop
      vertex -0.0902559 8.89 12.78
      vertex 2.54 7.85044 12.8893
      vertex 2.54 8.89 12.78
    endloop
  endfacet
  facet normal 0 0.104564 0.994518
    outer loop
      vertex 2.54 7.85044 12.8893
      vertex -0.0902559 8.89 12.78
      vertex -1.12981 7.85044 12.8893
    endloop
  endfacet
  facet normal -1 0 0
    outer loop
      vertex 2.54 11.3763 17.5187
      vertex 2.54 13.8626 17.2574
      vertex 2.54 13.6453 16.2349
    endloop
  endfacet
  facet normal -1 0 0
    outer loop
      vertex 2.54 13.8626 17.2574
      vertex 2.54 11.3763 17.5187
      vertex 2.54 13.8626 18.3026
    endloop
  endfacet
  facet normal -1 0 0
    outer loop
      vertex 2.54 11.2676 17.0075
      vertex 2.54 13.6453 16.2349
      vertex 2.54 13.2201 15.28
    endloop
  endfacet
  facet normal -1 0 0
    outer loop
      vertex 2.54 11.3763 18.0413
      vertex 2.54 13.8626 18.3026
      vertex 2.54 11.3763 17.5187
    endloop
  endfacet
  facet normal -1 0 0
    outer loop
      vertex 2.54 11.0551 16.53
      vertex 2.54 13.2201 15.28
      vertex 2.54 12.6057 14.4343
    endloop
  endfacet
  facet normal -1 -0 0
    outer loop
      vertex 2.54 13.8626 18.3026
      vertex 2.54 11.3763 18.0413
      vertex 2.54 13.6453 19.3251
    endloop
  endfacet
  facet normal -1 0 0
    outer loop
      vertex 2.54 10.7479 16.1072
      vertex 2.54 12.6057 14.4343
      vertex 2.54 11.8289 13.7349
    endloop
  endfacet
  facet normal -1 0 0
    outer loop
      vertex 2.54 11.2676 18.5525
      vertex 2.54 13.6453 19.3251
      vertex 2.54 11.3763 18.0413
    endloop
  endfacet
  facet normal -1 -0 0
    outer loop
      vertex 2.54 13.6453 19.3251
      vertex 2.54 11.2676 18.5525
      vertex 2.54 13.2201 20.28
    endloop
  endfacet
  facet normal -1 0 0
    outer loop
      vertex 2.54 13.6453 16.2349
      vertex 2.54 11.2676 17.0075
      vertex 2.54 11.3763 17.5187
    endloop
  endfacet
  facet normal -1 0 0
    outer loop
      vertex 2.54 13.2201 15.28
      vertex 2.54 11.0551 16.53
      vertex 2.54 11.2676 17.0075
    endloop
  endfacet
  facet normal -1 0 0
    outer loop
      vertex 2.54 10.3595 15.7575
      vertex 2.54 11.8289 13.7349
      vertex 2.54 10.9237 13.2123
    endloop
  endfacet
  facet normal -1 0 0
    outer loop
      vertex 2.54 12.6057 14.4343
      vertex 2.54 10.7479 16.1072
      vertex 2.54 11.0551 16.53
    endloop
  endfacet
  facet normal -1 0 0
    outer loop
      vertex 2.54 11.8289 13.7349
      vertex 2.54 10.3595 15.7575
      vertex 2.54 10.7479 16.1072
    endloop
  endfacet
  facet normal -1 0 0
    outer loop
      vertex 2.54 9.90684 15.4961
      vertex 2.54 10.9237 13.2123
      vertex 2.54 9.92956 12.8893
    endloop
  endfacet
  facet normal -1 0 0
    outer loop
      vertex 2.54 10.9237 13.2123
      vertex 2.54 9.90684 15.4961
      vertex 2.54 10.3595 15.7575
    endloop
  endfacet
  facet normal -1 0 0
    outer loop
      vertex 2.54 9.92956 12.8893
      vertex 2.54 9.40978 15.3346
      vertex 2.54 9.90684 15.4961
    endloop
  endfacet
  facet normal -1 0 0
    outer loop
      vertex 2.54 8.89 12.78
      vertex 2.54 9.40978 15.3346
      vertex 2.54 9.92956 12.8893
    endloop
  endfacet
  facet normal -1 0 0
    outer loop
      vertex 2.54 8.89 12.78
      vertex 2.54 8.89 15.28
      vertex 2.54 9.40978 15.3346
    endloop
  endfacet
  facet normal -1 0 0
    outer loop
      vertex 2.54 8.89 12.78
      vertex 2.54 8.37022 15.3346
      vertex 2.54 8.89 15.28
    endloop
  endfacet
  facet normal -1 0 0
    outer loop
      vertex 2.54 7.85044 12.8893
      vertex 2.54 8.37022 15.3346
      vertex 2.54 8.89 12.78
    endloop
  endfacet
  facet normal -1 -0 0
    outer loop
      vertex 2.54 8.37022 15.3346
      vertex 2.54 7.85044 12.8893
      vertex 2.54 7.87316 15.4961
    endloop
  endfacet
  facet normal -1 0 0
    outer loop
      vertex 2.54 6.85632 13.2123
      vertex 2.54 7.87316 15.4961
      vertex 2.54 7.85044 12.8893
    endloop
  endfacet
  facet normal -1 -0 0
    outer loop
      vertex 2.54 7.87316 15.4961
      vertex 2.54 6.85632 13.2123
      vertex 2.54 7.42054 15.7575
    endloop
  endfacet
  facet normal -1 0 0
    outer loop
      vertex 2.54 5.95107 13.7349
      vertex 2.54 7.42054 15.7575
      vertex 2.54 6.85632 13.2123
    endloop
  endfacet
  facet normal -1 -0 0
    outer loop
      vertex 2.54 7.42054 15.7575
      vertex 2.54 5.95107 13.7349
      vertex 2.54 7.03214 16.1072
    endloop
  endfacet
  facet normal -1 0 0
    outer loop
      vertex 2.54 5.17428 14.4343
      vertex 2.54 7.03214 16.1072
      vertex 2.54 5.95107 13.7349
    endloop
  endfacet
  facet normal -1 -0 0
    outer loop
      vertex 2.54 7.03214 16.1072
      vertex 2.54 5.17428 14.4343
      vertex 2.54 6.72494 16.53
    endloop
  endfacet
  facet normal -1 -0 0
    outer loop
      vertex 2.54 6.72494 16.53
      vertex 2.54 4.55987 15.28
      vertex 2.54 6.51236 17.0075
    endloop
  endfacet
  facet normal -1 0 0
    outer loop
      vertex 2.54 4.55987 15.28
      vertex 2.54 6.72494 16.53
      vertex 2.54 5.17428 14.4343
    endloop
  endfacet
  facet normal -1 0 0
    outer loop
      vertex 2.54 11.0551 19.03
      vertex 2.54 13.2201 20.28
      vertex 2.54 11.2676 18.5525
    endloop
  endfacet
  facet normal -1 -0 0
    outer loop
      vertex 2.54 13.2201 20.28
      vertex 2.54 11.0551 19.03
      vertex 2.54 12.6057 21.1257
    endloop
  endfacet
  facet normal -1 0 0
    outer loop
      vertex 2.54 10.7479 19.4528
      vertex 2.54 12.6057 21.1257
      vertex 2.54 11.0551 19.03
    endloop
  endfacet
  facet normal -1 -0 0
    outer loop
      vertex 2.54 12.6057 21.1257
      vertex 2.54 10.7479 19.4528
      vertex 2.54 11.8289 21.8251
    endloop
  endfacet
  facet normal -1 0 0
    outer loop
      vertex 2.54 10.3595 19.8025
      vertex 2.54 11.8289 21.8251
      vertex 2.54 10.7479 19.4528
    endloop
  endfacet
  facet normal -1 -0 0
    outer loop
      vertex 2.54 11.8289 21.8251
      vertex 2.54 10.3595 19.8025
      vertex 2.54 10.9237 22.3477
    endloop
  endfacet
  facet normal -1 0 0
    outer loop
      vertex 2.54 9.90684 20.0639
      vertex 2.54 10.9237 22.3477
      vertex 2.54 10.3595 19.8025
    endloop
  endfacet
  facet normal -1 -0 0
    outer loop
      vertex 2.54 10.9237 22.3477
      vertex 2.54 9.90684 20.0639
      vertex 2.54 9.92956 22.6707
    endloop
  endfacet
  facet normal -1 0 0
    outer loop
      vertex 2.54 9.40978 20.2254
      vertex 2.54 9.92956 22.6707
      vertex 2.54 9.90684 20.0639
    endloop
  endfacet
  facet normal -1 0 0
    outer loop
      vertex 2.54 8.89 20.28
      vertex 2.54 9.92956 22.6707
      vertex 2.54 9.40978 20.2254
    endloop
  endfacet
  facet normal -1 0 0
    outer loop
      vertex 2.54 8.89 20.28
      vertex 2.54 8.89 22.78
      vertex 2.54 9.92956 22.6707
    endloop
  endfacet
  facet normal -1 0 0
    outer loop
      vertex 2.54 8.37022 20.2254
      vertex 2.54 8.89 22.78
      vertex 2.54 8.89 20.28
    endloop
  endfacet
  facet normal -1 0 0
    outer loop
      vertex 2.54 7.85044 22.6707
      vertex 2.54 8.37022 20.2254
      vertex 2.54 7.87316 20.0639
    endloop
  endfacet
  facet normal -1 0 0
    outer loop
      vertex 2.54 8.37022 20.2254
      vertex 2.54 7.85044 22.6707
      vertex 2.54 8.89 22.78
    endloop
  endfacet
  facet normal -1 0 0
    outer loop
      vertex 2.54 6.85632 22.3477
      vertex 2.54 7.87316 20.0639
      vertex 2.54 7.42054 19.8025
    endloop
  endfacet
  facet normal -1 0 0
    outer loop
      vertex 2.54 5.95107 21.8251
      vertex 2.54 7.42054 19.8025
      vertex 2.54 7.03214 19.4528
    endloop
  endfacet
  facet normal -1 0 0
    outer loop
      vertex 2.54 7.87316 20.0639
      vertex 2.54 6.85632 22.3477
      vertex 2.54 7.85044 22.6707
    endloop
  endfacet
  facet normal -1 0 0
    outer loop
      vertex 2.54 5.17428 21.1257
      vertex 2.54 7.03214 19.4528
      vertex 2.54 6.72494 19.03
    endloop
  endfacet
  facet normal -1 0 0
    outer loop
      vertex 2.54 4.55987 20.28
      vertex 2.54 6.72494 19.03
      vertex 2.54 6.51236 18.5525
    endloop
  endfacet
  facet normal -1 0 0
    outer loop
      vertex 2.54 4.13472 19.3251
      vertex 2.54 6.51236 18.5525
      vertex 2.54 6.4037 18.0413
    endloop
  endfacet
  facet normal -1 0 0
    outer loop
      vertex 2.54 4.13472 16.2349
      vertex 2.54 6.51236 17.0075
      vertex 2.54 4.55987 15.28
    endloop
  endfacet
  facet normal -1 0 0
    outer loop
      vertex 2.54 7.42054 19.8025
      vertex 2.54 5.95107 21.8251
      vertex 2.54 6.85632 22.3477
    endloop
  endfacet
  facet normal -1 -0 0
    outer loop
      vertex 2.54 6.51236 17.0075
      vertex 2.54 4.13472 16.2349
      vertex 2.54 6.4037 17.5187
    endloop
  endfacet
  facet normal -1 0 0
    outer loop
      vertex 2.54 7.03214 19.4528
      vertex 2.54 5.17428 21.1257
      vertex 2.54 5.95107 21.8251
    endloop
  endfacet
  facet normal -1 0 0
    outer loop
      vertex 2.54 3.91739 17.2574
      vertex 2.54 6.4037 17.5187
      vertex 2.54 4.13472 16.2349
    endloop
  endfacet
  facet normal -1 0 0
    outer loop
      vertex 2.54 6.72494 19.03
      vertex 2.54 4.55987 20.28
      vertex 2.54 5.17428 21.1257
    endloop
  endfacet
  facet normal -1 -0 0
    outer loop
      vertex 2.54 6.4037 17.5187
      vertex 2.54 3.91739 17.2574
      vertex 2.54 6.4037 18.0413
    endloop
  endfacet
  facet normal -1 0 0
    outer loop
      vertex 2.54 6.51236 18.5525
      vertex 2.54 4.13472 19.3251
      vertex 2.54 4.55987 20.28
    endloop
  endfacet
  facet normal -1 0 0
    outer loop
      vertex 2.54 3.91739 18.3026
      vertex 2.54 6.4037 18.0413
      vertex 2.54 3.91739 17.2574
    endloop
  endfacet
  facet normal -1 0 0
    outer loop
      vertex 2.54 6.4037 18.0413
      vertex 2.54 3.91739 18.3026
      vertex 2.54 4.13472 19.3251
    endloop
  endfacet
  facet normal 0 -0.499987 0.866033
    outer loop
      vertex 0 11.8289 13.7349
      vertex 2.54 10.9237 13.2123
      vertex 2.54 11.8289 13.7349
    endloop
  endfacet
  facet normal 0 -0.499987 0.866033
    outer loop
      vertex 2.54 10.9237 13.2123
      vertex 0 11.8289 13.7349
      vertex 0 10.9237 13.2123
    endloop
  endfacet
  facet normal 0 -0.809034 0.587762
    outer loop
      vertex 0 12.6057 14.4343
      vertex 2.54 13.2201 15.28
      vertex 0 13.2201 15.28
    endloop
  endfacet
  facet normal 0 -0.809034 0.587762
    outer loop
      vertex 2.54 13.2201 15.28
      vertex 0 12.6057 14.4343
      vertex 2.54 12.6057 14.4343
    endloop
  endfacet
  facet normal 0 -0.978155 0.207876
    outer loop
      vertex 0 13.6453 16.2349
      vertex 2.54 13.8626 17.2574
      vertex 0 13.8626 17.2574
    endloop
  endfacet
  facet normal 0 -0.978155 0.207876
    outer loop
      vertex 2.54 13.8626 17.2574
      vertex 0 13.6453 16.2349
      vertex 2.54 13.6453 16.2349
    endloop
  endfacet
  facet normal -0 0.669117 0.743157
    outer loop
      vertex -3.02918 5.95107 13.7349
      vertex 2.54 5.17428 14.4343
      vertex 2.54 5.95107 13.7349
    endloop
  endfacet
  facet normal 0 0.669117 0.743157
    outer loop
      vertex 2.54 5.17428 14.4343
      vertex -3.02918 5.95107 13.7349
      vertex -3.80598 5.17428 14.4343
    endloop
  endfacet
  facet normal -0 0.309009 0.951059
    outer loop
      vertex -1.12981 7.85044 12.8893
      vertex 2.54 6.85632 13.2123
      vertex 2.54 7.85044 12.8893
    endloop
  endfacet
  facet normal 0 0.309009 0.951059
    outer loop
      vertex 2.54 6.85632 13.2123
      vertex -1.12981 7.85044 12.8893
      vertex -2.12394 6.85632 13.2123
    endloop
  endfacet
  facet normal -0 0.499967 0.866045
    outer loop
      vertex -2.12394 6.85632 13.2123
      vertex 2.54 5.95107 13.7349
      vertex 2.54 6.85632 13.2123
    endloop
  endfacet
  facet normal 0 0.499967 0.866045
    outer loop
      vertex 2.54 5.95107 13.7349
      vertex -2.12394 6.85632 13.2123
      vertex -3.02918 5.95107 13.7349
    endloop
  endfacet
  facet normal 0 0.913545 -0.406738
    outer loop
      vertex 2.54 4.13472 19.3251
      vertex -4.42038 4.55987 20.28
      vertex 2.54 4.55987 20.28
    endloop
  endfacet
  facet normal 0 0.913545 -0.406738
    outer loop
      vertex -4.42038 4.55987 20.28
      vertex 2.54 4.13472 19.3251
      vertex -4.84554 4.13472 19.3251
    endloop
  endfacet
  facet normal 0 0.309009 -0.951059
    outer loop
      vertex 2.54 6.85632 22.3477
      vertex -1.12981 7.85044 22.6707
      vertex 2.54 7.85044 22.6707
    endloop
  endfacet
  facet normal 0 0.309009 -0.951059
    outer loop
      vertex -1.12981 7.85044 22.6707
      vertex 2.54 6.85632 22.3477
      vertex -2.12394 6.85632 22.3477
    endloop
  endfacet
  facet normal -0 0.978149 0.207903
    outer loop
      vertex -4.84554 4.13472 16.2349
      vertex 2.54 3.91739 17.2574
      vertex 2.54 4.13472 16.2349
    endloop
  endfacet
  facet normal 0 0.978149 0.207903
    outer loop
      vertex 2.54 3.91739 17.2574
      vertex -4.84554 4.13472 16.2349
      vertex -5.06287 3.91739 17.2574
    endloop
  endfacet
  facet normal -0 0.809029 0.587768
    outer loop
      vertex -3.80598 5.17428 14.4343
      vertex 2.54 4.55987 15.28
      vertex 2.54 5.17428 14.4343
    endloop
  endfacet
  facet normal 0 0.809029 0.587768
    outer loop
      vertex 2.54 4.55987 15.28
      vertex -3.80598 5.17428 14.4343
      vertex -4.42038 4.55987 15.28
    endloop
  endfacet
  facet normal 0 1 -0
    outer loop
      vertex 2.54 3.91739 17.2574
      vertex -5.06287 3.91739 18.3026
      vertex 2.54 3.91739 18.3026
    endloop
  endfacet
  facet normal 0 1 0
    outer loop
      vertex -5.06287 3.91739 18.3026
      vertex 2.54 3.91739 17.2574
      vertex -5.06287 3.91739 17.2574
    endloop
  endfacet
  facet normal 0 0.978149 -0.207903
    outer loop
      vertex 2.54 3.91739 18.3026
      vertex -4.84554 4.13472 19.3251
      vertex 2.54 4.13472 19.3251
    endloop
  endfacet
  facet normal 0 0.978149 -0.207903
    outer loop
      vertex -4.84554 4.13472 19.3251
      vertex 2.54 3.91739 18.3026
      vertex -5.06287 3.91739 18.3026
    endloop
  endfacet
  facet normal 0 0.809029 -0.587768
    outer loop
      vertex 2.54 4.55987 20.28
      vertex -3.80598 5.17428 21.1257
      vertex 2.54 5.17428 21.1257
    endloop
  endfacet
  facet normal 0 0.809029 -0.587768
    outer loop
      vertex -3.80598 5.17428 21.1257
      vertex 2.54 4.55987 20.28
      vertex -4.42038 4.55987 20.28
    endloop
  endfacet
  facet normal 0 0.669117 -0.743157
    outer loop
      vertex 2.54 5.17428 21.1257
      vertex -3.02918 5.95107 21.8251
      vertex 2.54 5.95107 21.8251
    endloop
  endfacet
  facet normal 0 0.669117 -0.743157
    outer loop
      vertex -3.02918 5.95107 21.8251
      vertex 2.54 5.17428 21.1257
      vertex -3.80598 5.17428 21.1257
    endloop
  endfacet
  facet normal 0 0.499967 -0.866045
    outer loop
      vertex 2.54 5.95107 21.8251
      vertex -2.12394 6.85632 22.3477
      vertex 2.54 6.85632 22.3477
    endloop
  endfacet
  facet normal 0 0.499967 -0.866045
    outer loop
      vertex -2.12394 6.85632 22.3477
      vertex 2.54 5.95107 21.8251
      vertex -3.02918 5.95107 21.8251
    endloop
  endfacet
  facet normal 0 0.104564 -0.994518
    outer loop
      vertex 2.54 7.85044 22.6707
      vertex -0.0902559 8.89 22.78
      vertex 2.54 8.89 22.78
    endloop
  endfacet
  facet normal 0 0.104564 -0.994518
    outer loop
      vertex -0.0902559 8.89 22.78
      vertex 2.54 7.85044 22.6707
      vertex -1.12981 7.85044 22.6707
    endloop
  endfacet
  facet normal -0 0.913545 0.406738
    outer loop
      vertex -4.42038 4.55987 15.28
      vertex 2.54 4.13472 16.2349
      vertex 2.54 4.55987 15.28
    endloop
  endfacet
  facet normal 0 0.913545 0.406738
    outer loop
      vertex 2.54 4.13472 16.2349
      vertex -4.42038 4.55987 15.28
      vertex -4.84554 4.13472 16.2349
    endloop
  endfacet
endsolid OpenSCAD_Model
