solid OpenSCAD_Model
  facet normal 0 0 1
    outer loop
      vertex 0 8.98026 35.56
      vertex -25.3774 -24.1201 35.56
      vertex -24.1201 -25.3774 35.56
    endloop
  endfacet
  facet normal 0 0 1
    outer loop
      vertex -39.5196 -30.5393 35.56
      vertex -25.3774 -24.1201 35.56
      vertex 0 8.98026 35.56
    endloop
  endfacet
  facet normal 0 0 1
    outer loop
      vertex -25.3774 -24.1201 35.56
      vertex -37.1572 -33.4565 35.56
      vertex -35.9355 -34.6783 35.56
    endloop
  endfacet
  facet normal 0 0 1
    outer loop
      vertex -25.3774 -24.1201 35.56
      vertex -39.5196 -30.5393 35.56
      vertex -37.1572 -33.4565 35.56
    endloop
  endfacet
  facet normal 0 0 1
    outer loop
      vertex 18.542 25.4 35.56
      vertex 17.78 24.13 35.56
      vertex 18.542 24.13 35.56
    endloop
  endfacet
  facet normal -0 0 1
    outer loop
      vertex 0 8.98026 35.56
      vertex 17.78 1.27 35.56
      vertex 17.78 24.13 35.56
    endloop
  endfacet
  facet normal -0 0 1
    outer loop
      vertex 0 25.4 35.56
      vertex 17.78 24.13 35.56
      vertex 18.542 25.4 35.56
    endloop
  endfacet
  facet normal 0 0 1
    outer loop
      vertex 0 8.98026 35.56
      vertex 17.78 24.13 35.56
      vertex 0 25.4 35.56
    endloop
  endfacet
  facet normal 0 0 1
    outer loop
      vertex 17.78 1.27 35.56
      vertex 0 8.98026 35.56
      vertex 8.98026 0 35.56
    endloop
  endfacet
  facet normal 0 0 1
    outer loop
      vertex -24.1201 -25.3774 35.56
      vertex 8.98026 0 35.56
      vertex 0 8.98026 35.56
    endloop
  endfacet
  facet normal -0 0 1
    outer loop
      vertex -24.1201 -25.3774 35.56
      vertex -30.5393 -39.5196 35.56
      vertex 8.98026 0 35.56
    endloop
  endfacet
  facet normal 0 0 1
    outer loop
      vertex -24.1201 -25.3774 35.56
      vertex -33.4565 -37.1572 35.56
      vertex -30.5393 -39.5196 35.56
    endloop
  endfacet
  facet normal 0 -0 1
    outer loop
      vertex -33.4565 -37.1572 35.56
      vertex -24.1201 -25.3774 35.56
      vertex -34.6783 -35.9355 35.56
    endloop
  endfacet
  facet normal -0 0 1
    outer loop
      vertex 17.78 1.27 35.56
      vertex 18.542 0 35.56
      vertex 18.542 1.27 35.56
    endloop
  endfacet
  facet normal 0 0 1
    outer loop
      vertex 18.542 0 35.56
      vertex 17.78 1.27 35.56
      vertex 8.98026 0 35.56
    endloop
  endfacet
  facet normal -0.707133 0.707081 0
    outer loop
      vertex -37.337 -28.3568 8.001
      vertex -35.99 -27.0097 27.559
      vertex -35.99 -27.0097 8.001
    endloop
  endfacet
  facet normal -0.707133 0.707081 0
    outer loop
      vertex -35.99 -27.0097 27.559
      vertex -37.337 -28.3568 8.001
      vertex -37.337 -28.3568 27.559
    endloop
  endfacet
  facet normal -0.707123 0.707091 0
    outer loop
      vertex 0 8.98026 2.67029e-07
      vertex -0.0902559 8.89 12.78
      vertex 0 8.98026 12.7895
    endloop
  endfacet
  facet normal -0.707109 0.707105 1.98654e-07
    outer loop
      vertex 0 8.98026 2.67029e-07
      vertex -1.12981 7.85044 12.8893
      vertex -0.0902559 8.89 12.78
    endloop
  endfacet
  facet normal -0.707103 0.707111 1.20644e-06
    outer loop
      vertex 0 8.98026 2.67029e-07
      vertex -2.12394 6.85632 13.2123
      vertex -1.12981 7.85044 12.8893
    endloop
  endfacet
  facet normal -0.707111 0.707102 -1.38415e-06
    outer loop
      vertex 0 8.98026 2.67029e-07
      vertex -3.02918 5.95107 13.7349
      vertex -2.12394 6.85632 13.2123
    endloop
  endfacet
  facet normal -0.707101 0.707113 3.14743e-06
    outer loop
      vertex 0 8.98026 2.67029e-07
      vertex -3.80598 5.17428 14.4343
      vertex -3.02918 5.95107 13.7349
    endloop
  endfacet
  facet normal -0.707106 0.707107 2.11351e-07
    outer loop
      vertex -35.99 -27.0097 2.667
      vertex -3.80598 5.17428 14.4343
      vertex 0 8.98026 2.67029e-07
    endloop
  endfacet
  facet normal -0.707108 0.707106 7.11083e-06
    outer loop
      vertex -3.80598 5.17428 14.4343
      vertex -35.99 -27.0097 2.667
      vertex -4.42038 4.55987 15.28
    endloop
  endfacet
  facet normal -0.707106 0.707107 1.82759e-07
    outer loop
      vertex -4.84554 4.13472 16.2349
      vertex -35.99 -27.0097 8.001
      vertex -5.06287 3.91739 17.2574
    endloop
  endfacet
  facet normal -0.707105 0.707108 -6.26342e-06
    outer loop
      vertex -4.42038 4.55987 15.28
      vertex -35.99 -27.0097 8.001
      vertex -4.84554 4.13472 16.2349
    endloop
  endfacet
  facet normal -0.707106 0.707107 0
    outer loop
      vertex -35.99 -27.0097 8.001
      vertex -4.42038 4.55987 15.28
      vertex -35.99 -27.0097 2.667
    endloop
  endfacet
  facet normal -0.707106 0.707107 -9.47186e-07
    outer loop
      vertex -39.5196 -30.5393 2.67029e-07
      vertex -35.99 -27.0097 2.667
      vertex 0 8.98026 2.67029e-07
    endloop
  endfacet
  facet normal -0.707091 0.707123 0
    outer loop
      vertex -39.5196 -30.5393 2.67029e-07
      vertex -37.337 -28.3568 8.001
      vertex -37.337 -28.3568 2.667
    endloop
  endfacet
  facet normal -0.707091 0.707123 0
    outer loop
      vertex -37.337 -28.3568 8.001
      vertex -39.5196 -30.5393 2.67029e-07
      vertex -37.337 -28.3568 27.559
    endloop
  endfacet
  facet normal -0.707091 0.707123 0
    outer loop
      vertex -39.5196 -30.5393 35.56
      vertex -37.337 -28.3568 27.559
      vertex -39.5196 -30.5393 2.67029e-07
    endloop
  endfacet
  facet normal -0.707133 0.707081 6.9471e-05
    outer loop
      vertex -35.99 -27.0097 2.667
      vertex -39.5196 -30.5393 2.67029e-07
      vertex -37.337 -28.3568 2.667
    endloop
  endfacet
  facet normal -0.707123 0.707091 0
    outer loop
      vertex -0.0902559 8.89 22.78
      vertex 0 8.98026 35.56
      vertex 0 8.98026 22.7705
    endloop
  endfacet
  facet normal -0.707109 0.707105 -1.98654e-07
    outer loop
      vertex -1.12981 7.85044 22.6707
      vertex 0 8.98026 35.56
      vertex -0.0902559 8.89 22.78
    endloop
  endfacet
  facet normal -0.707103 0.707111 -1.20644e-06
    outer loop
      vertex -2.12394 6.85632 22.3477
      vertex 0 8.98026 35.56
      vertex -1.12981 7.85044 22.6707
    endloop
  endfacet
  facet normal -0.707111 0.707102 1.38415e-06
    outer loop
      vertex -3.02918 5.95107 21.8251
      vertex 0 8.98026 35.56
      vertex -2.12394 6.85632 22.3477
    endloop
  endfacet
  facet normal -0.707101 0.707113 -3.14743e-06
    outer loop
      vertex -3.80598 5.17428 21.1257
      vertex 0 8.98026 35.56
      vertex -3.02918 5.95107 21.8251
    endloop
  endfacet
  facet normal -0.707108 0.707106 -7.11083e-06
    outer loop
      vertex -35.99 -27.0097 32.893
      vertex -3.80598 5.17428 21.1257
      vertex -4.42038 4.55987 20.28
    endloop
  endfacet
  facet normal -0.707105 0.707108 6.26342e-06
    outer loop
      vertex -35.99 -27.0097 27.559
      vertex -4.42038 4.55987 20.28
      vertex -4.84554 4.13472 19.3251
    endloop
  endfacet
  facet normal -0.707106 0.707107 0
    outer loop
      vertex -5.06287 3.91739 17.2574
      vertex -35.99 -27.0097 8.001
      vertex -5.06287 3.91739 18.3026
    endloop
  endfacet
  facet normal -0.707106 0.707107 0
    outer loop
      vertex -35.99 -27.0097 27.559
      vertex -5.06287 3.91739 18.3026
      vertex -35.99 -27.0097 8.001
    endloop
  endfacet
  facet normal -0.707106 0.707107 -1.82759e-07
    outer loop
      vertex -5.06287 3.91739 18.3026
      vertex -35.99 -27.0097 27.559
      vertex -4.84554 4.13472 19.3251
    endloop
  endfacet
  facet normal -0.707106 0.707107 0
    outer loop
      vertex -4.42038 4.55987 20.28
      vertex -35.99 -27.0097 27.559
      vertex -35.99 -27.0097 32.893
    endloop
  endfacet
  facet normal -0.707106 0.707107 -2.11351e-07
    outer loop
      vertex -3.80598 5.17428 21.1257
      vertex -35.99 -27.0097 32.893
      vertex 0 8.98026 35.56
    endloop
  endfacet
  facet normal -0.707133 0.707081 -6.9471e-05
    outer loop
      vertex -39.5196 -30.5393 35.56
      vertex -35.99 -27.0097 32.893
      vertex -37.337 -28.3568 32.893
    endloop
  endfacet
  facet normal -0.707106 0.707107 9.47186e-07
    outer loop
      vertex -35.99 -27.0097 32.893
      vertex -39.5196 -30.5393 35.56
      vertex 0 8.98026 35.56
    endloop
  endfacet
  facet normal -0.707091 0.707123 0
    outer loop
      vertex -37.337 -28.3568 27.559
      vertex -39.5196 -30.5393 35.56
      vertex -37.337 -28.3568 32.893
    endloop
  endfacet
  facet normal 0 0 -1
    outer loop
      vertex 18.542 0 2.67029e-07
      vertex 17.78 1.27 2.67029e-07
      vertex 18.542 1.27 2.67029e-07
    endloop
  endfacet
  facet normal 0 0 -1
    outer loop
      vertex 0 8.98026 2.67029e-07
      vertex 17.78 1.27 2.67029e-07
      vertex 8.98026 0 2.67029e-07
    endloop
  endfacet
  facet normal 0 0 -1
    outer loop
      vertex 8.98026 0 2.67029e-07
      vertex 17.78 1.27 2.67029e-07
      vertex 18.542 0 2.67029e-07
    endloop
  endfacet
  facet normal 0 0 -1
    outer loop
      vertex 17.78 24.13 2.67029e-07
      vertex 18.542 25.4 2.67029e-07
      vertex 18.542 24.13 2.67029e-07
    endloop
  endfacet
  facet normal 0 0 -1
    outer loop
      vertex 17.78 1.27 2.67029e-07
      vertex 0 8.98026 2.67029e-07
      vertex 17.78 24.13 2.67029e-07
    endloop
  endfacet
  facet normal 0 0 -1
    outer loop
      vertex 0 25.4 2.67029e-07
      vertex 17.78 24.13 2.67029e-07
      vertex 0 8.98026 2.67029e-07
    endloop
  endfacet
  facet normal 0 0 -1
    outer loop
      vertex 17.78 24.13 2.67029e-07
      vertex 0 25.4 2.67029e-07
      vertex 18.542 25.4 2.67029e-07
    endloop
  endfacet
  facet normal -0 0 -1
    outer loop
      vertex 8.98026 0 2.67029e-07
      vertex -24.1201 -25.3774 2.67029e-07
      vertex 0 8.98026 2.67029e-07
    endloop
  endfacet
  facet normal 0 0 -1
    outer loop
      vertex -30.5393 -39.5196 2.67029e-07
      vertex -24.1201 -25.3774 2.67029e-07
      vertex 8.98026 0 2.67029e-07
    endloop
  endfacet
  facet normal 0 0 -1
    outer loop
      vertex -33.4565 -37.1572 2.67029e-07
      vertex -24.1201 -25.3774 2.67029e-07
      vertex -30.5393 -39.5196 2.67029e-07
    endloop
  endfacet
  facet normal 0 0 -1
    outer loop
      vertex -24.1201 -25.3774 2.67029e-07
      vertex -33.4565 -37.1572 2.67029e-07
      vertex -34.6783 -35.9355 2.67029e-07
    endloop
  endfacet
  facet normal 0 0 -1
    outer loop
      vertex -25.3774 -24.1201 2.67029e-07
      vertex 0 8.98026 2.67029e-07
      vertex -24.1201 -25.3774 2.67029e-07
    endloop
  endfacet
  facet normal 0 0 -1
    outer loop
      vertex -37.1572 -33.4565 2.67029e-07
      vertex -25.3774 -24.1201 2.67029e-07
      vertex -35.9355 -34.6783 2.67029e-07
    endloop
  endfacet
  facet normal 0 0 -1
    outer loop
      vertex -39.5196 -30.5393 2.67029e-07
      vertex -25.3774 -24.1201 2.67029e-07
      vertex -37.1572 -33.4565 2.67029e-07
    endloop
  endfacet
  facet normal -0 0 -1
    outer loop
      vertex -25.3774 -24.1201 2.67029e-07
      vertex -39.5196 -30.5393 2.67029e-07
      vertex 0 8.98026 2.67029e-07
    endloop
  endfacet
  facet normal 0.707081 -0.707133 0
    outer loop
      vertex -28.3568 -37.337 27.559
      vertex -27.0097 -35.99 8.001
      vertex -27.0097 -35.99 27.559
    endloop
  endfacet
  facet normal 0.707081 -0.707133 0
    outer loop
      vertex -27.0097 -35.99 8.001
      vertex -28.3568 -37.337 27.559
      vertex -28.3568 -37.337 8.001
    endloop
  endfacet
  facet normal 0.707107 -0.707106 0
    outer loop
      vertex -27.0097 -35.99 27.559
      vertex 8.98026 0 35.56
      vertex -27.0097 -35.99 32.893
    endloop
  endfacet
  facet normal 0.707107 -0.707106 9.47186e-07
    outer loop
      vertex -30.5393 -39.5196 35.56
      vertex -27.0097 -35.99 32.893
      vertex 8.98026 0 35.56
    endloop
  endfacet
  facet normal 0.707123 -0.707091 0
    outer loop
      vertex -30.5393 -39.5196 35.56
      vertex -28.3568 -37.337 27.559
      vertex -28.3568 -37.337 32.893
    endloop
  endfacet
  facet normal 0.707123 -0.707091 0
    outer loop
      vertex -28.3568 -37.337 27.559
      vertex -30.5393 -39.5196 35.56
      vertex -28.3568 -37.337 8.001
    endloop
  endfacet
  facet normal 0.707123 -0.707091 0
    outer loop
      vertex -30.5393 -39.5196 2.67029e-07
      vertex -28.3568 -37.337 8.001
      vertex -30.5393 -39.5196 35.56
    endloop
  endfacet
  facet normal 0.707081 -0.707133 -6.9471e-05
    outer loop
      vertex -27.0097 -35.99 32.893
      vertex -30.5393 -39.5196 35.56
      vertex -28.3568 -37.337 32.893
    endloop
  endfacet
  facet normal 0.707107 -0.707106 0
    outer loop
      vertex 8.98026 0 35.56
      vertex -27.0097 -35.99 27.559
      vertex 8.98026 0 2.67029e-07
    endloop
  endfacet
  facet normal 0.707107 -0.707106 0
    outer loop
      vertex -27.0097 -35.99 8.001
      vertex 8.98026 0 2.67029e-07
      vertex -27.0097 -35.99 27.559
    endloop
  endfacet
  facet normal 0.707107 -0.707106 0
    outer loop
      vertex -27.0097 -35.99 2.667
      vertex 8.98026 0 2.67029e-07
      vertex -27.0097 -35.99 8.001
    endloop
  endfacet
  facet normal 0.707081 -0.707133 6.9471e-05
    outer loop
      vertex -30.5393 -39.5196 2.67029e-07
      vertex -27.0097 -35.99 2.667
      vertex -28.3568 -37.337 2.667
    endloop
  endfacet
  facet normal 0.707107 -0.707106 -9.47186e-07
    outer loop
      vertex -27.0097 -35.99 2.667
      vertex -30.5393 -39.5196 2.67029e-07
      vertex 8.98026 0 2.67029e-07
    endloop
  endfacet
  facet normal 0.707123 -0.707091 0
    outer loop
      vertex -28.3568 -37.337 8.001
      vertex -30.5393 -39.5196 2.67029e-07
      vertex -28.3568 -37.337 2.667
    endloop
  endfacet
  facet normal -0.707107 -0.707107 0
    outer loop
      vertex -24.1201 -25.3774 2.67029e-07
      vertex -25.3774 -24.1201 35.56
      vertex -25.3774 -24.1201 2.67029e-07
    endloop
  endfacet
  facet normal -0.707107 -0.707107 0
    outer loop
      vertex -25.3774 -24.1201 35.56
      vertex -24.1201 -25.3774 2.67029e-07
      vertex -24.1201 -25.3774 35.56
    endloop
  endfacet
  facet normal -0.707081 0.707133 0
    outer loop
      vertex -32.2183 -33.4755 8.001
      vertex -30.8712 -32.1285 27.559
      vertex -30.8712 -32.1285 8.001
    endloop
  endfacet
  facet normal -0.707081 0.707133 0
    outer loop
      vertex -30.8712 -32.1285 27.559
      vertex -32.2183 -33.4755 8.001
      vertex -32.2183 -33.4755 27.559
    endloop
  endfacet
  facet normal -0.707107 0.707107 0
    outer loop
      vertex -30.8712 -32.1285 8.001
      vertex -24.1201 -25.3774 2.67029e-07
      vertex -30.8712 -32.1285 2.667
    endloop
  endfacet
  facet normal -0.707103 0.70711 1.69531e-05
    outer loop
      vertex -34.6783 -35.9355 2.67029e-07
      vertex -30.8712 -32.1285 2.667
      vertex -24.1201 -25.3774 2.67029e-07
    endloop
  endfacet
  facet normal -0.707107 0.707107 0
    outer loop
      vertex -34.6783 -35.9355 2.67029e-07
      vertex -32.2183 -33.4755 8.001
      vertex -32.2183 -33.4755 2.667
    endloop
  endfacet
  facet normal -0.707107 0.707107 0
    outer loop
      vertex -32.2183 -33.4755 8.001
      vertex -34.6783 -35.9355 2.67029e-07
      vertex -32.2183 -33.4755 27.559
    endloop
  endfacet
  facet normal -0.707107 0.707107 0
    outer loop
      vertex -34.6783 -35.9355 35.56
      vertex -32.2183 -33.4755 27.559
      vertex -34.6783 -35.9355 2.67029e-07
    endloop
  endfacet
  facet normal -0.707081 0.707133 -4.84187e-05
    outer loop
      vertex -30.8712 -32.1285 2.667
      vertex -34.6783 -35.9355 2.67029e-07
      vertex -32.2183 -33.4755 2.667
    endloop
  endfacet
  facet normal -0.707107 0.707107 0
    outer loop
      vertex -24.1201 -25.3774 2.67029e-07
      vertex -30.8712 -32.1285 8.001
      vertex -24.1201 -25.3774 35.56
    endloop
  endfacet
  facet normal -0.707107 0.707107 0
    outer loop
      vertex -30.8712 -32.1285 27.559
      vertex -24.1201 -25.3774 35.56
      vertex -30.8712 -32.1285 8.001
    endloop
  endfacet
  facet normal -0.707107 0.707107 0
    outer loop
      vertex -30.8712 -32.1285 32.893
      vertex -24.1201 -25.3774 35.56
      vertex -30.8712 -32.1285 27.559
    endloop
  endfacet
  facet normal -0.707081 0.707133 4.84187e-05
    outer loop
      vertex -34.6783 -35.9355 35.56
      vertex -30.8712 -32.1285 32.893
      vertex -32.2183 -33.4755 32.893
    endloop
  endfacet
  facet normal -0.707103 0.70711 -1.69531e-05
    outer loop
      vertex -30.8712 -32.1285 32.893
      vertex -34.6783 -35.9355 35.56
      vertex -24.1201 -25.3774 35.56
    endloop
  endfacet
  facet normal -0.707107 0.707107 0
    outer loop
      vertex -32.2183 -33.4755 27.559
      vertex -34.6783 -35.9355 35.56
      vertex -32.2183 -33.4755 32.893
    endloop
  endfacet
  facet normal 0.707133 -0.707081 0
    outer loop
      vertex -33.4755 -32.2183 27.559
      vertex -32.1285 -30.8712 8.001
      vertex -32.1285 -30.8712 27.559
    endloop
  endfacet
  facet normal 0.707133 -0.707081 0
    outer loop
      vertex -32.1285 -30.8712 8.001
      vertex -33.4755 -32.2183 27.559
      vertex -33.4755 -32.2183 8.001
    endloop
  endfacet
  facet normal 0.707107 -0.707107 0
    outer loop
      vertex -32.1285 -30.8712 27.559
      vertex -25.3774 -24.1201 35.56
      vertex -32.1285 -30.8712 32.893
    endloop
  endfacet
  facet normal 0.70711 -0.707103 -1.69531e-05
    outer loop
      vertex -35.9355 -34.6783 35.56
      vertex -32.1285 -30.8712 32.893
      vertex -25.3774 -24.1201 35.56
    endloop
  endfacet
  facet normal 0.707107 -0.707107 0
    outer loop
      vertex -35.9355 -34.6783 35.56
      vertex -33.4755 -32.2183 27.559
      vertex -33.4755 -32.2183 32.893
    endloop
  endfacet
  facet normal 0.707107 -0.707107 0
    outer loop
      vertex -33.4755 -32.2183 27.559
      vertex -35.9355 -34.6783 35.56
      vertex -33.4755 -32.2183 8.001
    endloop
  endfacet
  facet normal 0.707107 -0.707107 0
    outer loop
      vertex -35.9355 -34.6783 2.67029e-07
      vertex -33.4755 -32.2183 8.001
      vertex -35.9355 -34.6783 35.56
    endloop
  endfacet
  facet normal 0.707133 -0.707081 4.84187e-05
    outer loop
      vertex -32.1285 -30.8712 32.893
      vertex -35.9355 -34.6783 35.56
      vertex -33.4755 -32.2183 32.893
    endloop
  endfacet
  facet normal 0.707107 -0.707107 0
    outer loop
      vertex -25.3774 -24.1201 35.56
      vertex -32.1285 -30.8712 27.559
      vertex -25.3774 -24.1201 2.67029e-07
    endloop
  endfacet
  facet normal 0.707107 -0.707107 0
    outer loop
      vertex -32.1285 -30.8712 8.001
      vertex -25.3774 -24.1201 2.67029e-07
      vertex -32.1285 -30.8712 27.559
    endloop
  endfacet
  facet normal 0.707107 -0.707107 0
    outer loop
      vertex -32.1285 -30.8712 2.667
      vertex -25.3774 -24.1201 2.67029e-07
      vertex -32.1285 -30.8712 8.001
    endloop
  endfacet
  facet normal 0.707133 -0.707081 -4.84187e-05
    outer loop
      vertex -35.9355 -34.6783 2.67029e-07
      vertex -32.1285 -30.8712 2.667
      vertex -33.4755 -32.2183 2.667
    endloop
  endfacet
  facet normal 0.70711 -0.707103 1.69531e-05
    outer loop
      vertex -32.1285 -30.8712 2.667
      vertex -35.9355 -34.6783 2.67029e-07
      vertex -25.3774 -24.1201 2.67029e-07
    endloop
  endfacet
  facet normal 0.707107 -0.707107 0
    outer loop
      vertex -33.4755 -32.2183 8.001
      vertex -35.9355 -34.6783 2.67029e-07
      vertex -33.4755 -32.2183 2.667
    endloop
  endfacet
  facet normal 0.707107 0.707107 -0
    outer loop
      vertex -33.4755 -32.2183 27.559
      vertex -37.337 -28.3568 32.893
      vertex -33.4755 -32.2183 32.893
    endloop
  endfacet
  facet normal 0.707107 0.707107 0
    outer loop
      vertex -37.337 -28.3568 32.893
      vertex -33.4755 -32.2183 27.559
      vertex -37.337 -28.3568 27.559
    endloop
  endfacet
  facet normal 0.707107 0.707107 0
    outer loop
      vertex -28.3568 -37.337 32.893
      vertex -32.2183 -33.4755 27.559
      vertex -32.2183 -33.4755 32.893
    endloop
  endfacet
  facet normal 0.707107 0.707107 0
    outer loop
      vertex -32.2183 -33.4755 27.559
      vertex -28.3568 -37.337 32.893
      vertex -28.3568 -37.337 27.559
    endloop
  endfacet
  facet normal 0 0 -1
    outer loop
      vertex -33.4755 -32.2183 32.893
      vertex -35.99 -27.0097 32.893
      vertex -32.1285 -30.8712 32.893
    endloop
  endfacet
  facet normal 0 -0 -1
    outer loop
      vertex -35.99 -27.0097 32.893
      vertex -33.4755 -32.2183 32.893
      vertex -37.337 -28.3568 32.893
    endloop
  endfacet
  facet normal 0 0 -1
    outer loop
      vertex -28.3568 -37.337 32.893
      vertex -30.8712 -32.1285 32.893
      vertex -27.0097 -35.99 32.893
    endloop
  endfacet
  facet normal 0 -0 -1
    outer loop
      vertex -30.8712 -32.1285 32.893
      vertex -28.3568 -37.337 32.893
      vertex -32.2183 -33.4755 32.893
    endloop
  endfacet
  facet normal -0.707107 -0.707107 0
    outer loop
      vertex -35.99 -27.0097 27.559
      vertex -32.1285 -30.8712 32.893
      vertex -35.99 -27.0097 32.893
    endloop
  endfacet
  facet normal -0.707107 -0.707107 -0
    outer loop
      vertex -32.1285 -30.8712 32.893
      vertex -35.99 -27.0097 27.559
      vertex -32.1285 -30.8712 27.559
    endloop
  endfacet
  facet normal -0.707107 -0.707107 0
    outer loop
      vertex -27.0097 -35.99 27.559
      vertex -30.8712 -32.1285 32.893
      vertex -30.8712 -32.1285 27.559
    endloop
  endfacet
  facet normal -0.707107 -0.707107 0
    outer loop
      vertex -30.8712 -32.1285 32.893
      vertex -27.0097 -35.99 27.559
      vertex -27.0097 -35.99 32.893
    endloop
  endfacet
  facet normal 0 0 1
    outer loop
      vertex -35.99 -27.0097 27.559
      vertex -33.4755 -32.2183 27.559
      vertex -32.1285 -30.8712 27.559
    endloop
  endfacet
  facet normal 0 0 1
    outer loop
      vertex -33.4755 -32.2183 27.559
      vertex -35.99 -27.0097 27.559
      vertex -37.337 -28.3568 27.559
    endloop
  endfacet
  facet normal 0 0 1
    outer loop
      vertex -30.8712 -32.1285 27.559
      vertex -28.3568 -37.337 27.559
      vertex -27.0097 -35.99 27.559
    endloop
  endfacet
  facet normal 0 0 1
    outer loop
      vertex -28.3568 -37.337 27.559
      vertex -30.8712 -32.1285 27.559
      vertex -32.2183 -33.4755 27.559
    endloop
  endfacet
  facet normal 0.707107 0.707107 -0
    outer loop
      vertex -33.4755 -32.2183 2.667
      vertex -37.337 -28.3568 8.001
      vertex -33.4755 -32.2183 8.001
    endloop
  endfacet
  facet normal 0.707107 0.707107 0
    outer loop
      vertex -37.337 -28.3568 8.001
      vertex -33.4755 -32.2183 2.667
      vertex -37.337 -28.3568 2.667
    endloop
  endfacet
  facet normal 0.707107 0.707107 0
    outer loop
      vertex -28.3568 -37.337 8.001
      vertex -32.2183 -33.4755 2.667
      vertex -32.2183 -33.4755 8.001
    endloop
  endfacet
  facet normal 0.707107 0.707107 0
    outer loop
      vertex -32.2183 -33.4755 2.667
      vertex -28.3568 -37.337 8.001
      vertex -28.3568 -37.337 2.667
    endloop
  endfacet
  facet normal 0 0 -1
    outer loop
      vertex -33.4755 -32.2183 8.001
      vertex -35.99 -27.0097 8.001
      vertex -32.1285 -30.8712 8.001
    endloop
  endfacet
  facet normal 0 -0 -1
    outer loop
      vertex -35.99 -27.0097 8.001
      vertex -33.4755 -32.2183 8.001
      vertex -37.337 -28.3568 8.001
    endloop
  endfacet
  facet normal 0 0 -1
    outer loop
      vertex -28.3568 -37.337 8.001
      vertex -30.8712 -32.1285 8.001
      vertex -27.0097 -35.99 8.001
    endloop
  endfacet
  facet normal 0 -0 -1
    outer loop
      vertex -30.8712 -32.1285 8.001
      vertex -28.3568 -37.337 8.001
      vertex -32.2183 -33.4755 8.001
    endloop
  endfacet
  facet normal -0.707107 -0.707107 0
    outer loop
      vertex -35.99 -27.0097 2.667
      vertex -32.1285 -30.8712 8.001
      vertex -35.99 -27.0097 8.001
    endloop
  endfacet
  facet normal -0.707107 -0.707107 -0
    outer loop
      vertex -32.1285 -30.8712 8.001
      vertex -35.99 -27.0097 2.667
      vertex -32.1285 -30.8712 2.667
    endloop
  endfacet
  facet normal -0.707107 -0.707107 0
    outer loop
      vertex -27.0097 -35.99 2.667
      vertex -30.8712 -32.1285 8.001
      vertex -30.8712 -32.1285 2.667
    endloop
  endfacet
  facet normal -0.707107 -0.707107 0
    outer loop
      vertex -30.8712 -32.1285 8.001
      vertex -27.0097 -35.99 2.667
      vertex -27.0097 -35.99 8.001
    endloop
  endfacet
  facet normal 0 0 1
    outer loop
      vertex -35.99 -27.0097 2.667
      vertex -33.4755 -32.2183 2.667
      vertex -32.1285 -30.8712 2.667
    endloop
  endfacet
  facet normal 0 0 1
    outer loop
      vertex -33.4755 -32.2183 2.667
      vertex -35.99 -27.0097 2.667
      vertex -37.337 -28.3568 2.667
    endloop
  endfacet
  facet normal 0 0 1
    outer loop
      vertex -30.8712 -32.1285 2.667
      vertex -28.3568 -37.337 2.667
      vertex -27.0097 -35.99 2.667
    endloop
  endfacet
  facet normal 0 0 1
    outer loop
      vertex -28.3568 -37.337 2.667
      vertex -30.8712 -32.1285 2.667
      vertex -32.2183 -33.4755 2.667
    endloop
  endfacet
  facet normal -0.707136 -0.707078 0
    outer loop
      vertex -35.9355 -34.6783 2.67029e-07
      vertex -37.1572 -33.4565 35.56
      vertex -37.1572 -33.4565 2.67029e-07
    endloop
  endfacet
  facet normal -0.707136 -0.707078 0
    outer loop
      vertex -37.1572 -33.4565 35.56
      vertex -35.9355 -34.6783 2.67029e-07
      vertex -35.9355 -34.6783 35.56
    endloop
  endfacet
  facet normal -0.707078 -0.707136 0
    outer loop
      vertex -34.6783 -35.9355 2.67029e-07
      vertex -33.4565 -37.1572 35.56
      vertex -34.6783 -35.9355 35.56
    endloop
  endfacet
  facet normal -0.707078 -0.707136 -0
    outer loop
      vertex -33.4565 -37.1572 35.56
      vertex -34.6783 -35.9355 2.67029e-07
      vertex -33.4565 -37.1572 2.67029e-07
    endloop
  endfacet
  facet normal -0.777133 -0.629336 0
    outer loop
      vertex -37.1572 -33.4565 2.67029e-07
      vertex -39.5196 -30.5393 35.56
      vertex -39.5196 -30.5393 2.67029e-07
    endloop
  endfacet
  facet normal -0.777133 -0.629336 0
    outer loop
      vertex -39.5196 -30.5393 35.56
      vertex -37.1572 -33.4565 2.67029e-07
      vertex -37.1572 -33.4565 35.56
    endloop
  endfacet
  facet normal -0.629336 -0.777133 0
    outer loop
      vertex -33.4565 -37.1572 2.67029e-07
      vertex -30.5393 -39.5196 35.56
      vertex -33.4565 -37.1572 35.56
    endloop
  endfacet
  facet normal -0.629336 -0.777133 -0
    outer loop
      vertex -30.5393 -39.5196 35.56
      vertex -33.4565 -37.1572 2.67029e-07
      vertex -30.5393 -39.5196 2.67029e-07
    endloop
  endfacet
  facet normal -1 0 0
    outer loop
      vertex 0 25.4 2.67029e-07
      vertex 0 13.8626 17.2574
      vertex 0 25.4 35.56
    endloop
  endfacet
  facet normal -1 0 0
    outer loop
      vertex 0 25.4 2.67029e-07
      vertex 0 13.6453 16.2349
      vertex 0 13.8626 17.2574
    endloop
  endfacet
  facet normal -1 0 0
    outer loop
      vertex 0 25.4 2.67029e-07
      vertex 0 13.2201 15.28
      vertex 0 13.6453 16.2349
    endloop
  endfacet
  facet normal -1 0 0
    outer loop
      vertex 0 25.4 2.67029e-07
      vertex 0 12.6057 14.4343
      vertex 0 13.2201 15.28
    endloop
  endfacet
  facet normal -1 0 0
    outer loop
      vertex 0 25.4 2.67029e-07
      vertex 0 11.8289 13.7349
      vertex 0 12.6057 14.4343
    endloop
  endfacet
  facet normal -1 0 0
    outer loop
      vertex 0 8.98026 2.67029e-07
      vertex 0 11.8289 13.7349
      vertex 0 25.4 2.67029e-07
    endloop
  endfacet
  facet normal -1 0 0
    outer loop
      vertex 0 11.8289 13.7349
      vertex 0 8.98026 2.67029e-07
      vertex 0 10.9237 13.2123
    endloop
  endfacet
  facet normal -1 0 0
    outer loop
      vertex 0 10.9237 13.2123
      vertex 0 8.98026 2.67029e-07
      vertex 0 9.92956 12.8893
    endloop
  endfacet
  facet normal -1 0 0
    outer loop
      vertex 0 9.92956 12.8893
      vertex 0 8.98026 2.67029e-07
      vertex 0 8.98026 12.7895
    endloop
  endfacet
  facet normal -1 0 0
    outer loop
      vertex 0 13.8626 18.3026
      vertex 0 25.4 35.56
      vertex 0 13.8626 17.2574
    endloop
  endfacet
  facet normal -1 0 0
    outer loop
      vertex 0 13.6453 19.3251
      vertex 0 25.4 35.56
      vertex 0 13.8626 18.3026
    endloop
  endfacet
  facet normal -1 0 0
    outer loop
      vertex 0 13.2201 20.28
      vertex 0 25.4 35.56
      vertex 0 13.6453 19.3251
    endloop
  endfacet
  facet normal -1 0 0
    outer loop
      vertex 0 12.6057 21.1257
      vertex 0 25.4 35.56
      vertex 0 13.2201 20.28
    endloop
  endfacet
  facet normal -1 0 0
    outer loop
      vertex 0 11.8289 21.8251
      vertex 0 25.4 35.56
      vertex 0 12.6057 21.1257
    endloop
  endfacet
  facet normal -1 0 0
    outer loop
      vertex 0 8.98026 35.56
      vertex 0 11.8289 21.8251
      vertex 0 10.9237 22.3477
    endloop
  endfacet
  facet normal -1 0 0
    outer loop
      vertex 0 8.98026 35.56
      vertex 0 10.9237 22.3477
      vertex 0 9.92956 22.6707
    endloop
  endfacet
  facet normal -1 0 0
    outer loop
      vertex 0 8.98026 35.56
      vertex 0 9.92956 22.6707
      vertex 0 8.98026 22.7705
    endloop
  endfacet
  facet normal -1 0 0
    outer loop
      vertex 0 11.8289 21.8251
      vertex 0 8.98026 35.56
      vertex 0 25.4 35.56
    endloop
  endfacet
  facet normal 0 -1 0
    outer loop
      vertex 8.98026 0 2.67029e-07
      vertex 18.542 0 35.56
      vertex 8.98026 0 35.56
    endloop
  endfacet
  facet normal 0 -1 -0
    outer loop
      vertex 18.542 0 35.56
      vertex 8.98026 0 2.67029e-07
      vertex 18.542 0 2.67029e-07
    endloop
  endfacet
  facet normal 0 1 -0
    outer loop
      vertex 18.542 25.4 2.67029e-07
      vertex 0 25.4 35.56
      vertex 18.542 25.4 35.56
    endloop
  endfacet
  facet normal 0 1 0
    outer loop
      vertex 0 25.4 35.56
      vertex 18.542 25.4 2.67029e-07
      vertex 0 25.4 2.67029e-07
    endloop
  endfacet
  facet normal 1 0 0
    outer loop
      vertex 17.78 24.13 35.56
      vertex 17.78 11.6249 18.0675
      vertex 17.78 24.13 2.67029e-07
    endloop
  endfacet
  facet normal 1 0 0
    outer loop
      vertex 17.78 24.13 35.56
      vertex 17.78 11.5054 18.6298
      vertex 17.78 11.6249 18.0675
    endloop
  endfacet
  facet normal 1 0 0
    outer loop
      vertex 17.78 24.13 35.56
      vertex 17.78 11.2716 19.155
      vertex 17.78 11.5054 18.6298
    endloop
  endfacet
  facet normal 1 0 0
    outer loop
      vertex 17.78 24.13 35.56
      vertex 17.78 10.9336 19.6201
      vertex 17.78 11.2716 19.155
    endloop
  endfacet
  facet normal 1 0 0
    outer loop
      vertex 17.78 24.13 35.56
      vertex 17.78 10.5064 20.0048
      vertex 17.78 10.9336 19.6201
    endloop
  endfacet
  facet normal 1 0 0
    outer loop
      vertex 17.78 24.13 35.56
      vertex 17.78 10.0085 20.2922
      vertex 17.78 10.5064 20.0048
    endloop
  endfacet
  facet normal 1 0 0
    outer loop
      vertex 17.78 24.13 35.56
      vertex 17.78 9.46176 20.4699
      vertex 17.78 10.0085 20.2922
    endloop
  endfacet
  facet normal 1 -0 0
    outer loop
      vertex 17.78 1.27 35.56
      vertex 17.78 9.46176 20.4699
      vertex 17.78 24.13 35.56
    endloop
  endfacet
  facet normal 1 0 0
    outer loop
      vertex 17.78 9.46176 20.4699
      vertex 17.78 1.27 35.56
      vertex 17.78 8.89 20.53
    endloop
  endfacet
  facet normal 1 0 0
    outer loop
      vertex 17.78 8.89 20.53
      vertex 17.78 1.27 35.56
      vertex 17.78 8.31824 20.4699
    endloop
  endfacet
  facet normal 1 0 0
    outer loop
      vertex 17.78 8.31824 20.4699
      vertex 17.78 1.27 35.56
      vertex 17.78 7.77147 20.2922
    endloop
  endfacet
  facet normal 1 0 0
    outer loop
      vertex 17.78 7.77147 20.2922
      vertex 17.78 1.27 35.56
      vertex 17.78 7.27359 20.0048
    endloop
  endfacet
  facet normal 1 0 0
    outer loop
      vertex 17.78 6.15506 18.0675
      vertex 17.78 1.27 35.56
      vertex 17.78 6.15506 17.4925
    endloop
  endfacet
  facet normal 1 0 0
    outer loop
      vertex 17.78 6.27459 18.6298
      vertex 17.78 1.27 35.56
      vertex 17.78 6.15506 18.0675
    endloop
  endfacet
  facet normal 1 0 0
    outer loop
      vertex 17.78 6.50843 19.155
      vertex 17.78 1.27 35.56
      vertex 17.78 6.27459 18.6298
    endloop
  endfacet
  facet normal 1 0 0
    outer loop
      vertex 17.78 6.84635 19.6201
      vertex 17.78 1.27 35.56
      vertex 17.78 6.50843 19.155
    endloop
  endfacet
  facet normal 1 0 0
    outer loop
      vertex 17.78 7.27359 20.0048
      vertex 17.78 1.27 35.56
      vertex 17.78 6.84635 19.6201
    endloop
  endfacet
  facet normal 1 -0 0
    outer loop
      vertex 17.78 11.6249 17.4925
      vertex 17.78 24.13 2.67029e-07
      vertex 17.78 11.6249 18.0675
    endloop
  endfacet
  facet normal 1 -0 0
    outer loop
      vertex 17.78 11.5054 16.9302
      vertex 17.78 24.13 2.67029e-07
      vertex 17.78 11.6249 17.4925
    endloop
  endfacet
  facet normal 1 -0 0
    outer loop
      vertex 17.78 11.2716 16.405
      vertex 17.78 24.13 2.67029e-07
      vertex 17.78 11.5054 16.9302
    endloop
  endfacet
  facet normal 1 -0 0
    outer loop
      vertex 17.78 10.9336 15.9399
      vertex 17.78 24.13 2.67029e-07
      vertex 17.78 11.2716 16.405
    endloop
  endfacet
  facet normal 1 -0 0
    outer loop
      vertex 17.78 10.5064 15.5552
      vertex 17.78 24.13 2.67029e-07
      vertex 17.78 10.9336 15.9399
    endloop
  endfacet
  facet normal 1 -0 0
    outer loop
      vertex 17.78 10.0085 15.2677
      vertex 17.78 24.13 2.67029e-07
      vertex 17.78 10.5064 15.5552
    endloop
  endfacet
  facet normal 1 -0 0
    outer loop
      vertex 17.78 9.46176 15.0901
      vertex 17.78 24.13 2.67029e-07
      vertex 17.78 10.0085 15.2677
    endloop
  endfacet
  facet normal 1 0 0
    outer loop
      vertex 17.78 1.27 2.67029e-07
      vertex 17.78 9.46176 15.0901
      vertex 17.78 8.89 15.03
    endloop
  endfacet
  facet normal 1 0 0
    outer loop
      vertex 17.78 1.27 2.67029e-07
      vertex 17.78 8.89 15.03
      vertex 17.78 8.31824 15.0901
    endloop
  endfacet
  facet normal 1 0 0
    outer loop
      vertex 17.78 1.27 2.67029e-07
      vertex 17.78 8.31824 15.0901
      vertex 17.78 7.77147 15.2677
    endloop
  endfacet
  facet normal 1 0 0
    outer loop
      vertex 17.78 1.27 2.67029e-07
      vertex 17.78 7.77147 15.2677
      vertex 17.78 7.27359 15.5552
    endloop
  endfacet
  facet normal 1 0 0
    outer loop
      vertex 17.78 1.27 2.67029e-07
      vertex 17.78 7.27359 15.5552
      vertex 17.78 6.84635 15.9399
    endloop
  endfacet
  facet normal 1 0 0
    outer loop
      vertex 17.78 1.27 2.67029e-07
      vertex 17.78 6.15506 17.4925
      vertex 17.78 1.27 35.56
    endloop
  endfacet
  facet normal 1 0 0
    outer loop
      vertex 17.78 9.46176 15.0901
      vertex 17.78 1.27 2.67029e-07
      vertex 17.78 24.13 2.67029e-07
    endloop
  endfacet
  facet normal 1 0 0
    outer loop
      vertex 17.78 6.50843 16.405
      vertex 17.78 1.27 2.67029e-07
      vertex 17.78 6.84635 15.9399
    endloop
  endfacet
  facet normal 1 0 0
    outer loop
      vertex 17.78 6.27459 16.9302
      vertex 17.78 1.27 2.67029e-07
      vertex 17.78 6.50843 16.405
    endloop
  endfacet
  facet normal 1 0 0
    outer loop
      vertex 17.78 6.15506 17.4925
      vertex 17.78 1.27 2.67029e-07
      vertex 17.78 6.27459 16.9302
    endloop
  endfacet
  facet normal 0 -1 0
    outer loop
      vertex 17.78 24.13 2.67029e-07
      vertex 18.542 24.13 35.56
      vertex 17.78 24.13 35.56
    endloop
  endfacet
  facet normal 0 -1 -0
    outer loop
      vertex 18.542 24.13 35.56
      vertex 17.78 24.13 2.67029e-07
      vertex 18.542 24.13 2.67029e-07
    endloop
  endfacet
  facet normal 0 1 -0
    outer loop
      vertex 18.542 1.27 2.67029e-07
      vertex 17.78 1.27 35.56
      vertex 18.542 1.27 35.56
    endloop
  endfacet
  facet normal 0 1 0
    outer loop
      vertex 17.78 1.27 35.56
      vertex 18.542 1.27 2.67029e-07
      vertex 17.78 1.27 2.67029e-07
    endloop
  endfacet
  facet normal 1 -0 0
    outer loop
      vertex 18.542 0 35.56
      vertex 18.542 1.27 2.67029e-07
      vertex 18.542 1.27 35.56
    endloop
  endfacet
  facet normal 1 0 0
    outer loop
      vertex 18.542 1.27 2.67029e-07
      vertex 18.542 0 35.56
      vertex 18.542 0 2.67029e-07
    endloop
  endfacet
  facet normal 1 -0 0
    outer loop
      vertex 18.542 24.13 35.56
      vertex 18.542 25.4 2.67029e-07
      vertex 18.542 25.4 35.56
    endloop
  endfacet
  facet normal 1 0 0
    outer loop
      vertex 18.542 25.4 2.67029e-07
      vertex 18.542 24.13 35.56
      vertex 18.542 24.13 2.67029e-07
    endloop
  endfacet
  facet normal 0 -0.500049 0.865997
    outer loop
      vertex 2.54 10.5064 15.5552
      vertex 17.78 10.0085 15.2677
      vertex 17.78 10.5064 15.5552
    endloop
  endfacet
  facet normal 0 -0.500049 0.865997
    outer loop
      vertex 17.78 10.0085 15.2677
      vertex 2.54 10.5064 15.5552
      vertex 2.54 10.0085 15.2677
    endloop
  endfacet
  facet normal 0 -0.308944 0.95108
    outer loop
      vertex 2.54 10.0085 15.2677
      vertex 17.78 9.46176 15.0901
      vertex 17.78 10.0085 15.2677
    endloop
  endfacet
  facet normal 0 -0.308944 0.95108
    outer loop
      vertex 17.78 9.46176 15.0901
      vertex 2.54 10.0085 15.2677
      vertex 2.54 9.46176 15.0901
    endloop
  endfacet
  facet normal 0 -0.978155 0.207877
    outer loop
      vertex 2.54 11.5054 16.9302
      vertex 17.78 11.6249 17.4925
      vertex 2.54 11.6249 17.4925
    endloop
  endfacet
  facet normal 0 -0.978155 0.207877
    outer loop
      vertex 17.78 11.6249 17.4925
      vertex 2.54 11.5054 16.9302
      vertex 17.78 11.5054 16.9302
    endloop
  endfacet
  facet normal 0 -0.913567 -0.406687
    outer loop
      vertex 2.54 11.5054 18.6298
      vertex 17.78 11.2716 19.155
      vertex 2.54 11.2716 19.155
    endloop
  endfacet
  facet normal 0 -0.913567 -0.406687
    outer loop
      vertex 17.78 11.2716 19.155
      vertex 2.54 11.5054 18.6298
      vertex 17.78 11.5054 18.6298
    endloop
  endfacet
  facet normal 0 -0.499918 -0.866073
    outer loop
      vertex 2.54 10.0085 20.2922
      vertex 17.78 10.5064 20.0048
      vertex 17.78 10.0085 20.2922
    endloop
  endfacet
  facet normal -0 -0.499918 -0.866073
    outer loop
      vertex 17.78 10.5064 20.0048
      vertex 2.54 10.0085 20.2922
      vertex 2.54 10.5064 20.0048
    endloop
  endfacet
  facet normal 0 -0.808947 -0.587882
    outer loop
      vertex 2.54 11.2716 19.155
      vertex 17.78 10.9336 19.6201
      vertex 2.54 10.9336 19.6201
    endloop
  endfacet
  facet normal 0 -0.808947 -0.587882
    outer loop
      vertex 17.78 10.9336 19.6201
      vertex 2.54 11.2716 19.155
      vertex 17.78 11.2716 19.155
    endloop
  endfacet
  facet normal -0 0.104538 0.994521
    outer loop
      vertex 2.54 8.89 15.03
      vertex 17.78 8.31824 15.0901
      vertex 17.78 8.89 15.03
    endloop
  endfacet
  facet normal 0 0.104538 0.994521
    outer loop
      vertex 17.78 8.31824 15.0901
      vertex 2.54 8.89 15.03
      vertex 2.54 8.31824 15.0901
    endloop
  endfacet
  facet normal 0 -1 0
    outer loop
      vertex 2.54 11.6249 17.4925
      vertex 17.78 11.6249 18.0675
      vertex 2.54 11.6249 18.0675
    endloop
  endfacet
  facet normal 0 -1 -0
    outer loop
      vertex 17.78 11.6249 18.0675
      vertex 2.54 11.6249 17.4925
      vertex 17.78 11.6249 17.4925
    endloop
  endfacet
  facet normal 0 -0.808947 0.587882
    outer loop
      vertex 2.54 10.9336 15.9399
      vertex 17.78 11.2716 16.405
      vertex 2.54 11.2716 16.405
    endloop
  endfacet
  facet normal 0 -0.808947 0.587882
    outer loop
      vertex 17.78 11.2716 16.405
      vertex 2.54 10.9336 15.9399
      vertex 17.78 10.9336 15.9399
    endloop
  endfacet
  facet normal 0 -0.104538 -0.994521
    outer loop
      vertex 2.54 8.89 20.53
      vertex 17.78 9.46176 20.4699
      vertex 17.78 8.89 20.53
    endloop
  endfacet
  facet normal -0 -0.104538 -0.994521
    outer loop
      vertex 17.78 9.46176 20.4699
      vertex 2.54 8.89 20.53
      vertex 2.54 9.46176 20.4699
    endloop
  endfacet
  facet normal 0 -0.669176 -0.743104
    outer loop
      vertex 2.54 10.5064 20.0048
      vertex 17.78 10.9336 19.6201
      vertex 17.78 10.5064 20.0048
    endloop
  endfacet
  facet normal -0 -0.669176 -0.743104
    outer loop
      vertex 17.78 10.9336 19.6201
      vertex 2.54 10.5064 20.0048
      vertex 2.54 10.9336 19.6201
    endloop
  endfacet
  facet normal 0 -0.978155 -0.207877
    outer loop
      vertex 2.54 11.6249 18.0675
      vertex 17.78 11.5054 18.6298
      vertex 2.54 11.5054 18.6298
    endloop
  endfacet
  facet normal 0 -0.978155 -0.207877
    outer loop
      vertex 17.78 11.5054 18.6298
      vertex 2.54 11.6249 18.0675
      vertex 17.78 11.6249 18.0675
    endloop
  endfacet
  facet normal 0 -0.104538 0.994521
    outer loop
      vertex 2.54 9.46176 15.0901
      vertex 17.78 8.89 15.03
      vertex 17.78 9.46176 15.0901
    endloop
  endfacet
  facet normal 0 -0.104538 0.994521
    outer loop
      vertex 17.78 8.89 15.03
      vertex 2.54 9.46176 15.0901
      vertex 2.54 8.89 15.03
    endloop
  endfacet
  facet normal 0 0.809013 0.587791
    outer loop
      vertex 17.78 6.84635 15.9399
      vertex 2.54 6.50843 16.405
      vertex 17.78 6.50843 16.405
    endloop
  endfacet
  facet normal 0 0.809013 0.587791
    outer loop
      vertex 2.54 6.50843 16.405
      vertex 17.78 6.84635 15.9399
      vertex 2.54 6.84635 15.9399
    endloop
  endfacet
  facet normal 0 -0.669176 0.743104
    outer loop
      vertex 2.54 10.9336 15.9399
      vertex 17.78 10.5064 15.5552
      vertex 17.78 10.9336 15.9399
    endloop
  endfacet
  facet normal 0 -0.669176 0.743104
    outer loop
      vertex 17.78 10.5064 15.5552
      vertex 2.54 10.9336 15.9399
      vertex 2.54 10.5064 15.5552
    endloop
  endfacet
  facet normal 0 -0.913567 0.406687
    outer loop
      vertex 2.54 11.2716 16.405
      vertex 17.78 11.5054 16.9302
      vertex 2.54 11.5054 16.9302
    endloop
  endfacet
  facet normal 0 -0.913567 0.406687
    outer loop
      vertex 17.78 11.5054 16.9302
      vertex 2.54 11.2716 16.405
      vertex 17.78 11.2716 16.405
    endloop
  endfacet
  facet normal 0 -0.309101 -0.951029
    outer loop
      vertex 2.54 9.46176 20.4699
      vertex 17.78 10.0085 20.2922
      vertex 17.78 9.46176 20.4699
    endloop
  endfacet
  facet normal -0 -0.309101 -0.951029
    outer loop
      vertex 17.78 10.0085 20.2922
      vertex 2.54 9.46176 20.4699
      vertex 2.54 10.0085 20.2922
    endloop
  endfacet
  facet normal -0 0.500064 0.865989
    outer loop
      vertex 2.54 7.77147 15.2677
      vertex 17.78 7.27359 15.5552
      vertex 17.78 7.77147 15.2677
    endloop
  endfacet
  facet normal 0 0.500064 0.865989
    outer loop
      vertex 17.78 7.27359 15.5552
      vertex 2.54 7.77147 15.2677
      vertex 2.54 7.27359 15.5552
    endloop
  endfacet
  facet normal 0 0.104538 -0.994521
    outer loop
      vertex 2.54 8.31824 20.4699
      vertex 17.78 8.89 20.53
      vertex 17.78 8.31824 20.4699
    endloop
  endfacet
  facet normal 0 0.104538 -0.994521
    outer loop
      vertex 17.78 8.89 20.53
      vertex 2.54 8.31824 20.4699
      vertex 2.54 8.89 20.53
    endloop
  endfacet
  facet normal 0 0.499933 -0.866064
    outer loop
      vertex 2.54 7.27359 20.0048
      vertex 17.78 7.77147 20.2922
      vertex 17.78 7.27359 20.0048
    endloop
  endfacet
  facet normal 0 0.499933 -0.866064
    outer loop
      vertex 17.78 7.77147 20.2922
      vertex 2.54 7.27359 20.0048
      vertex 2.54 7.77147 20.2922
    endloop
  endfacet
  facet normal 0 0.978144 0.207927
    outer loop
      vertex 17.78 6.27459 16.9302
      vertex 2.54 6.15506 17.4925
      vertex 17.78 6.15506 17.4925
    endloop
  endfacet
  facet normal 0 0.978144 0.207927
    outer loop
      vertex 2.54 6.15506 17.4925
      vertex 17.78 6.27459 16.9302
      vertex 2.54 6.27459 16.9302
    endloop
  endfacet
  facet normal 0 0.913542 0.406745
    outer loop
      vertex 17.78 6.50843 16.405
      vertex 2.54 6.27459 16.9302
      vertex 17.78 6.27459 16.9302
    endloop
  endfacet
  facet normal 0 0.913542 0.406745
    outer loop
      vertex 2.54 6.27459 16.9302
      vertex 17.78 6.50843 16.405
      vertex 2.54 6.50843 16.405
    endloop
  endfacet
  facet normal -0 0.308928 0.951085
    outer loop
      vertex 2.54 8.31824 15.0901
      vertex 17.78 7.77147 15.2677
      vertex 17.78 8.31824 15.0901
    endloop
  endfacet
  facet normal 0 0.308928 0.951085
    outer loop
      vertex 17.78 7.77147 15.2677
      vertex 2.54 8.31824 15.0901
      vertex 2.54 7.77147 15.2677
    endloop
  endfacet
  facet normal 0 1 -0
    outer loop
      vertex 17.78 6.15506 17.4925
      vertex 2.54 6.15506 18.0675
      vertex 17.78 6.15506 18.0675
    endloop
  endfacet
  facet normal 0 1 0
    outer loop
      vertex 2.54 6.15506 18.0675
      vertex 17.78 6.15506 17.4925
      vertex 2.54 6.15506 17.4925
    endloop
  endfacet
  facet normal 0 0.978144 -0.207927
    outer loop
      vertex 17.78 6.15506 18.0675
      vertex 2.54 6.27459 18.6298
      vertex 17.78 6.27459 18.6298
    endloop
  endfacet
  facet normal 0 0.978144 -0.207927
    outer loop
      vertex 2.54 6.27459 18.6298
      vertex 17.78 6.15506 18.0675
      vertex 2.54 6.15506 18.0675
    endloop
  endfacet
  facet normal 0 0.309086 -0.951034
    outer loop
      vertex 2.54 7.77147 20.2922
      vertex 17.78 8.31824 20.4699
      vertex 17.78 7.77147 20.2922
    endloop
  endfacet
  facet normal 0 0.309086 -0.951034
    outer loop
      vertex 17.78 8.31824 20.4699
      vertex 2.54 7.77147 20.2922
      vertex 2.54 8.31824 20.4699
    endloop
  endfacet
  facet normal 0 0.669142 -0.743135
    outer loop
      vertex 2.54 6.84635 19.6201
      vertex 17.78 7.27359 20.0048
      vertex 17.78 6.84635 19.6201
    endloop
  endfacet
  facet normal 0 0.669142 -0.743135
    outer loop
      vertex 17.78 7.27359 20.0048
      vertex 2.54 6.84635 19.6201
      vertex 2.54 7.27359 20.0048
    endloop
  endfacet
  facet normal -0 0.669142 0.743135
    outer loop
      vertex 2.54 7.27359 15.5552
      vertex 17.78 6.84635 15.9399
      vertex 17.78 7.27359 15.5552
    endloop
  endfacet
  facet normal 0 0.669142 0.743135
    outer loop
      vertex 17.78 6.84635 15.9399
      vertex 2.54 7.27359 15.5552
      vertex 2.54 6.84635 15.9399
    endloop
  endfacet
  facet normal 0 0.913542 -0.406745
    outer loop
      vertex 17.78 6.27459 18.6298
      vertex 2.54 6.50843 19.155
      vertex 17.78 6.50843 19.155
    endloop
  endfacet
  facet normal 0 0.913542 -0.406745
    outer loop
      vertex 2.54 6.50843 19.155
      vertex 17.78 6.27459 18.6298
      vertex 2.54 6.27459 18.6298
    endloop
  endfacet
  facet normal 0 0.809013 -0.587791
    outer loop
      vertex 17.78 6.50843 19.155
      vertex 2.54 6.84635 19.6201
      vertex 17.78 6.84635 19.6201
    endloop
  endfacet
  facet normal 0 0.809013 -0.587791
    outer loop
      vertex 2.54 6.84635 19.6201
      vertex 17.78 6.50843 19.155
      vertex 2.54 6.50843 19.155
    endloop
  endfacet
  facet normal 0 -0.309003 -0.951061
    outer loop
      vertex 0 9.92956 22.6707
      vertex 2.54 10.9237 22.3477
      vertex 2.54 9.92956 22.6707
    endloop
  endfacet
  facet normal -0 -0.309003 -0.951061
    outer loop
      vertex 2.54 10.9237 22.3477
      vertex 0 9.92956 22.6707
      vertex 0 10.9237 22.3477
    endloop
  endfacet
  facet normal -1 0 0
    outer loop
      vertex 2.54 11.6249 17.4925
      vertex 2.54 13.8626 17.2574
      vertex 2.54 13.6453 16.2349
    endloop
  endfacet
  facet normal -1 0 0
    outer loop
      vertex 2.54 13.8626 17.2574
      vertex 2.54 11.6249 17.4925
      vertex 2.54 13.8626 18.3026
    endloop
  endfacet
  facet normal -1 0 0
    outer loop
      vertex 2.54 11.5054 16.9302
      vertex 2.54 13.6453 16.2349
      vertex 2.54 13.2201 15.28
    endloop
  endfacet
  facet normal -1 0 0
    outer loop
      vertex 2.54 11.6249 18.0675
      vertex 2.54 13.8626 18.3026
      vertex 2.54 11.6249 17.4925
    endloop
  endfacet
  facet normal -1 0 0
    outer loop
      vertex 2.54 11.2716 16.405
      vertex 2.54 13.2201 15.28
      vertex 2.54 12.6057 14.4343
    endloop
  endfacet
  facet normal -1 -0 0
    outer loop
      vertex 2.54 13.8626 18.3026
      vertex 2.54 11.6249 18.0675
      vertex 2.54 13.6453 19.3251
    endloop
  endfacet
  facet normal -1 0 0
    outer loop
      vertex 2.54 10.9336 15.9399
      vertex 2.54 12.6057 14.4343
      vertex 2.54 11.8289 13.7349
    endloop
  endfacet
  facet normal -1 0 0
    outer loop
      vertex 2.54 11.5054 18.6298
      vertex 2.54 13.6453 19.3251
      vertex 2.54 11.6249 18.0675
    endloop
  endfacet
  facet normal -1 -0 0
    outer loop
      vertex 2.54 13.6453 19.3251
      vertex 2.54 11.5054 18.6298
      vertex 2.54 13.2201 20.28
    endloop
  endfacet
  facet normal -1 0 0
    outer loop
      vertex 2.54 13.6453 16.2349
      vertex 2.54 11.5054 16.9302
      vertex 2.54 11.6249 17.4925
    endloop
  endfacet
  facet normal -1 0 0
    outer loop
      vertex 2.54 13.2201 15.28
      vertex 2.54 11.2716 16.405
      vertex 2.54 11.5054 16.9302
    endloop
  endfacet
  facet normal -1 0 0
    outer loop
      vertex 2.54 12.6057 14.4343
      vertex 2.54 10.9336 15.9399
      vertex 2.54 11.2716 16.405
    endloop
  endfacet
  facet normal -1 0 0
    outer loop
      vertex 2.54 10.5064 15.5552
      vertex 2.54 11.8289 13.7349
      vertex 2.54 10.9237 13.2123
    endloop
  endfacet
  facet normal -1 0 0
    outer loop
      vertex 2.54 11.8289 13.7349
      vertex 2.54 10.5064 15.5552
      vertex 2.54 10.9336 15.9399
    endloop
  endfacet
  facet normal -1 0 0
    outer loop
      vertex 2.54 10.9237 13.2123
      vertex 2.54 10.0085 15.2677
      vertex 2.54 10.5064 15.5552
    endloop
  endfacet
  facet normal -1 0 0
    outer loop
      vertex 2.54 9.92956 12.8893
      vertex 2.54 10.0085 15.2677
      vertex 2.54 10.9237 13.2123
    endloop
  endfacet
  facet normal -1 0 0
    outer loop
      vertex 2.54 9.92956 12.8893
      vertex 2.54 9.46176 15.0901
      vertex 2.54 10.0085 15.2677
    endloop
  endfacet
  facet normal -1 0 0
    outer loop
      vertex 2.54 8.89 12.78
      vertex 2.54 9.46176 15.0901
      vertex 2.54 9.92956 12.8893
    endloop
  endfacet
  facet normal -1 0 0
    outer loop
      vertex 2.54 8.89 12.78
      vertex 2.54 8.89 15.03
      vertex 2.54 9.46176 15.0901
    endloop
  endfacet
  facet normal -1 0 0
    outer loop
      vertex 2.54 8.89 12.78
      vertex 2.54 8.31824 15.0901
      vertex 2.54 8.89 15.03
    endloop
  endfacet
  facet normal -1 0 0
    outer loop
      vertex 2.54 7.85044 12.8893
      vertex 2.54 8.31824 15.0901
      vertex 2.54 8.89 12.78
    endloop
  endfacet
  facet normal -1 0 0
    outer loop
      vertex 2.54 7.85044 12.8893
      vertex 2.54 7.77147 15.2677
      vertex 2.54 8.31824 15.0901
    endloop
  endfacet
  facet normal -1 0 0
    outer loop
      vertex 2.54 6.85632 13.2123
      vertex 2.54 7.77147 15.2677
      vertex 2.54 7.85044 12.8893
    endloop
  endfacet
  facet normal -1 -0 0
    outer loop
      vertex 2.54 7.77147 15.2677
      vertex 2.54 6.85632 13.2123
      vertex 2.54 7.27359 15.5552
    endloop
  endfacet
  facet normal -1 0 0
    outer loop
      vertex 2.54 5.95107 13.7349
      vertex 2.54 7.27359 15.5552
      vertex 2.54 6.85632 13.2123
    endloop
  endfacet
  facet normal -1 -0 0
    outer loop
      vertex 2.54 7.27359 15.5552
      vertex 2.54 5.95107 13.7349
      vertex 2.54 6.84635 15.9399
    endloop
  endfacet
  facet normal -1 0 0
    outer loop
      vertex 2.54 5.17428 14.4343
      vertex 2.54 6.84635 15.9399
      vertex 2.54 5.95107 13.7349
    endloop
  endfacet
  facet normal -1 -0 0
    outer loop
      vertex 2.54 6.84635 15.9399
      vertex 2.54 5.17428 14.4343
      vertex 2.54 6.50843 16.405
    endloop
  endfacet
  facet normal -1 -0 0
    outer loop
      vertex 2.54 6.50843 16.405
      vertex 2.54 4.55987 15.28
      vertex 2.54 6.27459 16.9302
    endloop
  endfacet
  facet normal -1 0 0
    outer loop
      vertex 2.54 4.55987 15.28
      vertex 2.54 6.50843 16.405
      vertex 2.54 5.17428 14.4343
    endloop
  endfacet
  facet normal -1 0 0
    outer loop
      vertex 2.54 11.2716 19.155
      vertex 2.54 13.2201 20.28
      vertex 2.54 11.5054 18.6298
    endloop
  endfacet
  facet normal -1 -0 0
    outer loop
      vertex 2.54 13.2201 20.28
      vertex 2.54 11.2716 19.155
      vertex 2.54 12.6057 21.1257
    endloop
  endfacet
  facet normal -1 0 0
    outer loop
      vertex 2.54 10.9336 19.6201
      vertex 2.54 12.6057 21.1257
      vertex 2.54 11.2716 19.155
    endloop
  endfacet
  facet normal -1 -0 0
    outer loop
      vertex 2.54 12.6057 21.1257
      vertex 2.54 10.9336 19.6201
      vertex 2.54 11.8289 21.8251
    endloop
  endfacet
  facet normal -1 0 0
    outer loop
      vertex 2.54 10.5064 20.0048
      vertex 2.54 11.8289 21.8251
      vertex 2.54 10.9336 19.6201
    endloop
  endfacet
  facet normal -1 -0 0
    outer loop
      vertex 2.54 11.8289 21.8251
      vertex 2.54 10.5064 20.0048
      vertex 2.54 10.9237 22.3477
    endloop
  endfacet
  facet normal -1 0 0
    outer loop
      vertex 2.54 10.0085 20.2922
      vertex 2.54 10.9237 22.3477
      vertex 2.54 10.5064 20.0048
    endloop
  endfacet
  facet normal -1 0 0
    outer loop
      vertex 2.54 10.0085 20.2922
      vertex 2.54 9.92956 22.6707
      vertex 2.54 10.9237 22.3477
    endloop
  endfacet
  facet normal -1 0 0
    outer loop
      vertex 2.54 9.46176 20.4699
      vertex 2.54 9.92956 22.6707
      vertex 2.54 10.0085 20.2922
    endloop
  endfacet
  facet normal -1 0 0
    outer loop
      vertex 2.54 8.89 20.53
      vertex 2.54 9.92956 22.6707
      vertex 2.54 9.46176 20.4699
    endloop
  endfacet
  facet normal -1 0 0
    outer loop
      vertex 2.54 8.89 20.53
      vertex 2.54 8.89 22.78
      vertex 2.54 9.92956 22.6707
    endloop
  endfacet
  facet normal -1 0 0
    outer loop
      vertex 2.54 8.31824 20.4699
      vertex 2.54 8.89 22.78
      vertex 2.54 8.89 20.53
    endloop
  endfacet
  facet normal -1 0 0
    outer loop
      vertex 2.54 8.31824 20.4699
      vertex 2.54 7.85044 22.6707
      vertex 2.54 8.89 22.78
    endloop
  endfacet
  facet normal -1 0 0
    outer loop
      vertex 2.54 7.77147 20.2922
      vertex 2.54 7.85044 22.6707
      vertex 2.54 8.31824 20.4699
    endloop
  endfacet
  facet normal -1 0 0
    outer loop
      vertex 2.54 6.85632 22.3477
      vertex 2.54 7.77147 20.2922
      vertex 2.54 7.27359 20.0048
    endloop
  endfacet
  facet normal -1 0 0
    outer loop
      vertex 2.54 7.77147 20.2922
      vertex 2.54 6.85632 22.3477
      vertex 2.54 7.85044 22.6707
    endloop
  endfacet
  facet normal -1 0 0
    outer loop
      vertex 2.54 5.95107 21.8251
      vertex 2.54 7.27359 20.0048
      vertex 2.54 6.84635 19.6201
    endloop
  endfacet
  facet normal -1 0 0
    outer loop
      vertex 2.54 5.17428 21.1257
      vertex 2.54 6.84635 19.6201
      vertex 2.54 6.50843 19.155
    endloop
  endfacet
  facet normal -1 0 0
    outer loop
      vertex 2.54 4.55987 20.28
      vertex 2.54 6.50843 19.155
      vertex 2.54 6.27459 18.6298
    endloop
  endfacet
  facet normal -1 0 0
    outer loop
      vertex 2.54 4.13472 19.3251
      vertex 2.54 6.27459 18.6298
      vertex 2.54 6.15506 18.0675
    endloop
  endfacet
  facet normal -1 0 0
    outer loop
      vertex 2.54 7.27359 20.0048
      vertex 2.54 5.95107 21.8251
      vertex 2.54 6.85632 22.3477
    endloop
  endfacet
  facet normal -1 0 0
    outer loop
      vertex 2.54 4.13472 16.2349
      vertex 2.54 6.27459 16.9302
      vertex 2.54 4.55987 15.28
    endloop
  endfacet
  facet normal -1 -0 0
    outer loop
      vertex 2.54 6.27459 16.9302
      vertex 2.54 4.13472 16.2349
      vertex 2.54 6.15506 17.4925
    endloop
  endfacet
  facet normal -1 0 0
    outer loop
      vertex 2.54 6.84635 19.6201
      vertex 2.54 5.17428 21.1257
      vertex 2.54 5.95107 21.8251
    endloop
  endfacet
  facet normal -1 0 0
    outer loop
      vertex 2.54 3.91739 17.2574
      vertex 2.54 6.15506 17.4925
      vertex 2.54 4.13472 16.2349
    endloop
  endfacet
  facet normal -1 0 0
    outer loop
      vertex 2.54 6.50843 19.155
      vertex 2.54 4.55987 20.28
      vertex 2.54 5.17428 21.1257
    endloop
  endfacet
  facet normal -1 -0 0
    outer loop
      vertex 2.54 6.15506 17.4925
      vertex 2.54 3.91739 17.2574
      vertex 2.54 6.15506 18.0675
    endloop
  endfacet
  facet normal -1 0 0
    outer loop
      vertex 2.54 6.27459 18.6298
      vertex 2.54 4.13472 19.3251
      vertex 2.54 4.55987 20.28
    endloop
  endfacet
  facet normal -1 0 0
    outer loop
      vertex 2.54 3.91739 18.3026
      vertex 2.54 6.15506 18.0675
      vertex 2.54 3.91739 17.2574
    endloop
  endfacet
  facet normal -1 0 0
    outer loop
      vertex 2.54 6.15506 18.0675
      vertex 2.54 3.91739 18.3026
      vertex 2.54 4.13472 19.3251
    endloop
  endfacet
  facet normal 0 -0.669113 0.743161
    outer loop
      vertex 0 12.6057 14.4343
      vertex 2.54 11.8289 13.7349
      vertex 2.54 12.6057 14.4343
    endloop
  endfacet
  facet normal 0 -0.669113 0.743161
    outer loop
      vertex 2.54 11.8289 13.7349
      vertex 0 12.6057 14.4343
      vertex 0 11.8289 13.7349
    endloop
  endfacet
  facet normal 0 -1 0
    outer loop
      vertex 0 13.8626 17.2574
      vertex 2.54 13.8626 18.3026
      vertex 0 13.8626 18.3026
    endloop
  endfacet
  facet normal 0 -1 -0
    outer loop
      vertex 2.54 13.8626 18.3026
      vertex 0 13.8626 17.2574
      vertex 2.54 13.8626 17.2574
    endloop
  endfacet
  facet normal 0 -0.913527 -0.406777
    outer loop
      vertex 0 13.6453 19.3251
      vertex 2.54 13.2201 20.28
      vertex 0 13.2201 20.28
    endloop
  endfacet
  facet normal 0 -0.913527 -0.406777
    outer loop
      vertex 2.54 13.2201 20.28
      vertex 0 13.6453 19.3251
      vertex 2.54 13.6453 19.3251
    endloop
  endfacet
  facet normal 0 -0.499987 -0.866033
    outer loop
      vertex 0 10.9237 22.3477
      vertex 2.54 11.8289 21.8251
      vertex 2.54 10.9237 22.3477
    endloop
  endfacet
  facet normal -0 -0.499987 -0.866033
    outer loop
      vertex 2.54 11.8289 21.8251
      vertex 0 10.9237 22.3477
      vertex 0 11.8289 21.8251
    endloop
  endfacet
  facet normal -0 0.104564 0.994518
    outer loop
      vertex -0.0902559 8.89 12.78
      vertex 2.54 7.85044 12.8893
      vertex 2.54 8.89 12.78
    endloop
  endfacet
  facet normal 0 0.104564 0.994518
    outer loop
      vertex 2.54 7.85044 12.8893
      vertex -0.0902559 8.89 12.78
      vertex -1.12981 7.85044 12.8893
    endloop
  endfacet
  facet normal -0 0.978149 0.207903
    outer loop
      vertex -4.84554 4.13472 16.2349
      vertex 2.54 3.91739 17.2574
      vertex 2.54 4.13472 16.2349
    endloop
  endfacet
  facet normal 0 0.978149 0.207903
    outer loop
      vertex 2.54 3.91739 17.2574
      vertex -4.84554 4.13472 16.2349
      vertex -5.06287 3.91739 17.2574
    endloop
  endfacet
  facet normal 0 -0.309003 0.951061
    outer loop
      vertex 0 10.9237 13.2123
      vertex 2.54 9.92956 12.8893
      vertex 2.54 10.9237 13.2123
    endloop
  endfacet
  facet normal 0 -0.309003 0.951061
    outer loop
      vertex 2.54 9.92956 12.8893
      vertex 0 10.9237 13.2123
      vertex 0 9.92956 12.8893
    endloop
  endfacet
  facet normal 0 -0.499987 0.866033
    outer loop
      vertex 0 11.8289 13.7349
      vertex 2.54 10.9237 13.2123
      vertex 2.54 11.8289 13.7349
    endloop
  endfacet
  facet normal 0 -0.499987 0.866033
    outer loop
      vertex 2.54 10.9237 13.2123
      vertex 0 11.8289 13.7349
      vertex 0 10.9237 13.2123
    endloop
  endfacet
  facet normal 0 -0.913527 0.406777
    outer loop
      vertex 0 13.2201 15.28
      vertex 2.54 13.6453 16.2349
      vertex 0 13.6453 16.2349
    endloop
  endfacet
  facet normal 0 -0.913527 0.406777
    outer loop
      vertex 2.54 13.6453 16.2349
      vertex 0 13.2201 15.28
      vertex 2.54 13.2201 15.28
    endloop
  endfacet
  facet normal 3.91784e-06 -0.104564 -0.994518
    outer loop
      vertex 2.54 8.89 22.78
      vertex 0 8.98026 22.7705
      vertex 2.54 9.92956 22.6707
    endloop
  endfacet
  facet normal 0 -0.104673 -0.994507
    outer loop
      vertex 0 8.98026 22.7705
      vertex 2.54 8.89 22.78
      vertex -0.0902559 8.89 22.78
    endloop
  endfacet
  facet normal -0 -0.104554 -0.994519
    outer loop
      vertex 2.54 9.92956 22.6707
      vertex 0 8.98026 22.7705
      vertex 0 9.92956 22.6707
    endloop
  endfacet
  facet normal 0 -0.809034 -0.587762
    outer loop
      vertex 0 13.2201 20.28
      vertex 2.54 12.6057 21.1257
      vertex 0 12.6057 21.1257
    endloop
  endfacet
  facet normal 0 -0.809034 -0.587762
    outer loop
      vertex 2.54 12.6057 21.1257
      vertex 0 13.2201 20.28
      vertex 2.54 13.2201 20.28
    endloop
  endfacet
  facet normal 0 -0.978155 -0.207876
    outer loop
      vertex 0 13.8626 18.3026
      vertex 2.54 13.6453 19.3251
      vertex 0 13.6453 19.3251
    endloop
  endfacet
  facet normal 0 -0.978155 -0.207876
    outer loop
      vertex 2.54 13.6453 19.3251
      vertex 0 13.8626 18.3026
      vertex 2.54 13.8626 18.3026
    endloop
  endfacet
  facet normal 0 -0.669113 -0.743161
    outer loop
      vertex 0 11.8289 21.8251
      vertex 2.54 12.6057 21.1257
      vertex 2.54 11.8289 21.8251
    endloop
  endfacet
  facet normal -0 -0.669113 -0.743161
    outer loop
      vertex 2.54 12.6057 21.1257
      vertex 0 11.8289 21.8251
      vertex 0 12.6057 21.1257
    endloop
  endfacet
  facet normal 0 -0.104554 0.994519
    outer loop
      vertex 0 8.98026 12.7895
      vertex 2.54 9.92956 12.8893
      vertex 0 9.92956 12.8893
    endloop
  endfacet
  facet normal 3.91784e-06 -0.104564 0.994518
    outer loop
      vertex 2.54 9.92956 12.8893
      vertex 0 8.98026 12.7895
      vertex 2.54 8.89 12.78
    endloop
  endfacet
  facet normal 0 -0.104673 0.994507
    outer loop
      vertex 2.54 8.89 12.78
      vertex 0 8.98026 12.7895
      vertex -0.0902559 8.89 12.78
    endloop
  endfacet
  facet normal -0 0.309009 0.951059
    outer loop
      vertex -1.12981 7.85044 12.8893
      vertex 2.54 6.85632 13.2123
      vertex 2.54 7.85044 12.8893
    endloop
  endfacet
  facet normal 0 0.309009 0.951059
    outer loop
      vertex 2.54 6.85632 13.2123
      vertex -1.12981 7.85044 12.8893
      vertex -2.12394 6.85632 13.2123
    endloop
  endfacet
  facet normal -0 0.809029 0.587768
    outer loop
      vertex -3.80598 5.17428 14.4343
      vertex 2.54 4.55987 15.28
      vertex 2.54 5.17428 14.4343
    endloop
  endfacet
  facet normal 0 0.809029 0.587768
    outer loop
      vertex 2.54 4.55987 15.28
      vertex -3.80598 5.17428 14.4343
      vertex -4.42038 4.55987 15.28
    endloop
  endfacet
  facet normal 0 -0.809034 0.587762
    outer loop
      vertex 0 12.6057 14.4343
      vertex 2.54 13.2201 15.28
      vertex 0 13.2201 15.28
    endloop
  endfacet
  facet normal 0 -0.809034 0.587762
    outer loop
      vertex 2.54 13.2201 15.28
      vertex 0 12.6057 14.4343
      vertex 2.54 12.6057 14.4343
    endloop
  endfacet
  facet normal 0 -0.978155 0.207876
    outer loop
      vertex 0 13.6453 16.2349
      vertex 2.54 13.8626 17.2574
      vertex 0 13.8626 17.2574
    endloop
  endfacet
  facet normal 0 -0.978155 0.207876
    outer loop
      vertex 2.54 13.8626 17.2574
      vertex 0 13.6453 16.2349
      vertex 2.54 13.6453 16.2349
    endloop
  endfacet
  facet normal -0 0.499967 0.866045
    outer loop
      vertex -2.12394 6.85632 13.2123
      vertex 2.54 5.95107 13.7349
      vertex 2.54 6.85632 13.2123
    endloop
  endfacet
  facet normal 0 0.499967 0.866045
    outer loop
      vertex 2.54 5.95107 13.7349
      vertex -2.12394 6.85632 13.2123
      vertex -3.02918 5.95107 13.7349
    endloop
  endfacet
  facet normal 0 1 -0
    outer loop
      vertex 2.54 3.91739 17.2574
      vertex -5.06287 3.91739 18.3026
      vertex 2.54 3.91739 18.3026
    endloop
  endfacet
  facet normal 0 1 0
    outer loop
      vertex -5.06287 3.91739 18.3026
      vertex 2.54 3.91739 17.2574
      vertex -5.06287 3.91739 17.2574
    endloop
  endfacet
  facet normal 0 0.499967 -0.866045
    outer loop
      vertex 2.54 5.95107 21.8251
      vertex -2.12394 6.85632 22.3477
      vertex 2.54 6.85632 22.3477
    endloop
  endfacet
  facet normal 0 0.499967 -0.866045
    outer loop
      vertex -2.12394 6.85632 22.3477
      vertex 2.54 5.95107 21.8251
      vertex -3.02918 5.95107 21.8251
    endloop
  endfacet
  facet normal -0 0.913545 0.406738
    outer loop
      vertex -4.42038 4.55987 15.28
      vertex 2.54 4.13472 16.2349
      vertex 2.54 4.55987 15.28
    endloop
  endfacet
  facet normal 0 0.913545 0.406738
    outer loop
      vertex 2.54 4.13472 16.2349
      vertex -4.42038 4.55987 15.28
      vertex -4.84554 4.13472 16.2349
    endloop
  endfacet
  facet normal 0 0.978149 -0.207903
    outer loop
      vertex 2.54 3.91739 18.3026
      vertex -4.84554 4.13472 19.3251
      vertex 2.54 4.13472 19.3251
    endloop
  endfacet
  facet normal 0 0.978149 -0.207903
    outer loop
      vertex -4.84554 4.13472 19.3251
      vertex 2.54 3.91739 18.3026
      vertex -5.06287 3.91739 18.3026
    endloop
  endfacet
  facet normal 0 0.913545 -0.406738
    outer loop
      vertex 2.54 4.13472 19.3251
      vertex -4.42038 4.55987 20.28
      vertex 2.54 4.55987 20.28
    endloop
  endfacet
  facet normal 0 0.913545 -0.406738
    outer loop
      vertex -4.42038 4.55987 20.28
      vertex 2.54 4.13472 19.3251
      vertex -4.84554 4.13472 19.3251
    endloop
  endfacet
  facet normal 0 0.809029 -0.587768
    outer loop
      vertex 2.54 4.55987 20.28
      vertex -3.80598 5.17428 21.1257
      vertex 2.54 5.17428 21.1257
    endloop
  endfacet
  facet normal 0 0.809029 -0.587768
    outer loop
      vertex -3.80598 5.17428 21.1257
      vertex 2.54 4.55987 20.28
      vertex -4.42038 4.55987 20.28
    endloop
  endfacet
  facet normal 0 0.309009 -0.951059
    outer loop
      vertex 2.54 6.85632 22.3477
      vertex -1.12981 7.85044 22.6707
      vertex 2.54 7.85044 22.6707
    endloop
  endfacet
  facet normal 0 0.309009 -0.951059
    outer loop
      vertex -1.12981 7.85044 22.6707
      vertex 2.54 6.85632 22.3477
      vertex -2.12394 6.85632 22.3477
    endloop
  endfacet
  facet normal 0 0.104564 -0.994518
    outer loop
      vertex 2.54 7.85044 22.6707
      vertex -0.0902559 8.89 22.78
      vertex 2.54 8.89 22.78
    endloop
  endfacet
  facet normal 0 0.104564 -0.994518
    outer loop
      vertex -0.0902559 8.89 22.78
      vertex 2.54 7.85044 22.6707
      vertex -1.12981 7.85044 22.6707
    endloop
  endfacet
  facet normal 0 0.669117 -0.743157
    outer loop
      vertex 2.54 5.17428 21.1257
      vertex -3.02918 5.95107 21.8251
      vertex 2.54 5.95107 21.8251
    endloop
  endfacet
  facet normal 0 0.669117 -0.743157
    outer loop
      vertex -3.02918 5.95107 21.8251
      vertex 2.54 5.17428 21.1257
      vertex -3.80598 5.17428 21.1257
    endloop
  endfacet
  facet normal -0 0.669117 0.743157
    outer loop
      vertex -3.02918 5.95107 13.7349
      vertex 2.54 5.17428 14.4343
      vertex 2.54 5.95107 13.7349
    endloop
  endfacet
  facet normal 0 0.669117 0.743157
    outer loop
      vertex 2.54 5.17428 14.4343
      vertex -3.02918 5.95107 13.7349
      vertex -3.80598 5.17428 14.4343
    endloop
  endfacet
endsolid OpenSCAD_Model
